<svg width="500" height="500" viewBox="0 0 500 500" fill="none" xmlns="http://www.w3.org/2000/svg">
<mask id="mask0_117_2749" style="mask-type:alpha" maskUnits="userSpaceOnUse" x="0" y="0" width="500" height="500">
<rect width="500" height="500" fill="#D9D9D9"/>
</mask>
<g mask="url(#mask0_117_2749)">
<path d="M375.279 330.251C387.057 337.065 387.135 348.084 375.435 354.879L263.608 419.864C251.927 426.678 232.848 426.678 221.07 419.864L108.524 354.898C96.8425 348.084 96.6868 337.065 108.407 330.251L220.213 265.266C231.894 258.472 250.934 258.472 262.713 265.266L375.279 330.251Z" fill="white" stroke="black" stroke-width="2" stroke-miterlimit="10"/>
<path d="M375.435 354.879L263.609 419.864C251.928 426.678 232.849 426.678 221.071 419.864L108.524 354.898C102.684 351.472 99.6465 346.975 99.6465 342.497V356.242C99.6465 360.719 102.586 365.197 108.524 368.623L221.071 433.609C232.752 440.403 251.908 440.403 263.609 433.609L375.435 368.623C381.276 365.255 384.137 360.836 384.157 356.397V342.672C384.137 347.091 381.276 351.511 375.435 354.879Z" fill="white" stroke="black" stroke-width="2" stroke-miterlimit="10"/>
<path d="M299.644 342.322C303.11 344.268 303.129 347.597 299.644 349.603L262.518 371.193C260.573 372.181 258.422 372.697 256.24 372.697C254.058 372.697 251.906 372.181 249.961 371.193L168.583 324.197C165.098 322.25 165.06 318.94 168.583 316.935L205.748 295.344C207.694 294.356 209.845 293.841 212.027 293.841C214.209 293.841 216.36 294.356 218.306 295.344L299.644 342.322Z" fill="white" stroke="black" stroke-width="2" stroke-miterlimit="10"/>
<path d="M299.683 349.603L262.518 371.193C260.573 372.181 258.422 372.697 256.24 372.697C254.058 372.697 251.906 372.181 249.961 371.193L168.583 324.197C167.86 323.875 167.235 323.366 166.773 322.723C166.311 322.08 166.029 321.325 165.955 320.536V331.01C166.024 331.798 166.299 332.553 166.754 333.199C167.209 333.845 167.826 334.36 168.544 334.69L249.942 381.667C251.886 382.66 254.037 383.178 256.22 383.178C258.403 383.178 260.555 382.66 262.499 381.667L299.644 359.999C300.356 359.679 300.97 359.175 301.422 358.538C301.874 357.901 302.147 357.156 302.214 356.378V345.904C302.164 346.691 301.903 347.45 301.458 348.101C301.012 348.753 300.399 349.271 299.683 349.603Z" fill="white" stroke="black" stroke-width="2" stroke-miterlimit="10"/>
<path d="M273.013 309.225L272.896 349.447L202.09 308.563L202.207 268.342L273.013 309.225Z" fill="white" stroke="black" stroke-width="2" stroke-linecap="round" stroke-linejoin="round"/>
<path d="M273.013 309.225L280.45 304.903L280.353 345.125L272.896 349.447L273.013 309.225Z" fill="white" stroke="black" stroke-width="2" stroke-linecap="round" stroke-linejoin="round"/>
<path d="M202.207 268.342L209.644 264.02L280.45 304.903L273.013 309.225L202.207 268.342Z" fill="white" stroke="black" stroke-width="2" stroke-linecap="round" stroke-linejoin="round"/>
<path d="M337.998 154.588C342.257 157.357 345.801 161.093 348.341 165.491C350.882 169.889 352.348 174.825 352.619 179.897L352.074 344.619C352.074 353.925 345.455 357.663 337.356 353.01L139.285 238.594C135.022 235.829 131.473 232.095 128.929 227.696C126.384 223.298 124.916 218.36 124.645 213.286L125.112 48.5055C125.112 39.2191 131.731 35.4422 139.83 40.1146L337.998 154.588Z" fill="white" stroke="black" stroke-width="2" stroke-miterlimit="10"/>
<path d="M352.891 145.944L154.723 31.5288C150.634 29.1731 146.955 29.0368 144.288 30.5164L129.395 39.1604C132.062 37.6029 135.761 37.8365 139.83 40.1727L337.998 154.588C342.256 157.357 345.8 161.092 348.341 165.491C350.882 169.889 352.348 174.825 352.619 179.897L352.074 344.619C352.074 349.233 350.438 352.406 347.81 354.022L362.684 345.378C365.312 343.84 366.947 340.589 366.967 335.975L367.434 171.273C367.167 166.206 365.711 161.273 363.185 156.873C360.659 152.473 357.132 148.729 352.891 145.944Z" fill="white" stroke="black" stroke-width="2" stroke-miterlimit="10"/>
<path d="M149.233 126.942L149.234 139.993L146.967 138.684L146.966 133.131L142.125 130.335L142.125 135.889L139.858 134.58L139.857 121.528L142.124 122.837L142.125 128.204L146.966 130.999L146.966 125.633L149.233 126.942ZM150.882 135.728C150.882 134.681 151.06 133.855 151.416 133.251C151.783 132.652 152.274 132.313 152.89 132.232C153.516 132.157 154.212 132.341 154.979 132.783C155.648 133.17 156.231 133.662 156.727 134.26C157.235 134.865 157.64 135.491 157.942 136.14L157.942 134.662L160.225 135.981L160.225 146.34L157.942 145.022L157.942 143.507C157.651 143.825 157.246 143.996 156.728 144.021C156.22 144.04 155.632 143.856 154.963 143.469C154.207 143.033 153.516 142.41 152.89 141.6C152.275 140.795 151.783 139.882 151.416 138.86C151.06 137.832 150.882 136.788 150.882 135.728ZM157.942 139.842C157.942 139.206 157.834 138.602 157.618 138.028C157.402 137.442 157.111 136.925 156.744 136.476C156.377 136.015 155.983 135.663 155.562 135.42C155.141 135.177 154.752 135.071 154.396 135.102C154.039 135.133 153.748 135.314 153.521 135.644C153.305 135.968 153.197 136.442 153.197 137.065C153.198 137.688 153.305 138.299 153.521 138.898C153.748 139.49 154.04 140.013 154.396 140.468C154.763 140.93 155.152 141.279 155.562 141.515C155.983 141.759 156.377 141.868 156.744 141.843C157.111 141.805 157.402 141.625 157.618 141.3C157.834 140.964 157.942 140.478 157.942 139.842ZM166.18 147.366L168.447 140.728L170.86 142.121L167.541 150.563L164.788 148.974L161.484 136.708L163.913 138.11L166.18 147.366ZM180.473 152.627C180.473 153.001 180.451 153.325 180.408 153.599L173.85 149.812C173.904 150.591 174.13 151.308 174.53 151.963C174.929 152.617 175.421 153.113 176.004 153.449C176.846 153.935 177.445 153.864 177.801 153.234L180.246 154.646C179.987 155.494 179.49 156.03 178.756 156.254C178.022 156.466 177.121 156.263 176.052 155.646C175.189 155.148 174.411 154.481 173.72 153.646C173.04 152.804 172.506 151.866 172.117 150.831C171.739 149.803 171.55 148.759 171.55 147.699C171.55 146.627 171.739 145.795 172.117 145.203C172.495 144.611 173.024 144.293 173.704 144.249C174.384 144.206 175.167 144.44 176.052 144.951C176.905 145.443 177.666 146.095 178.335 146.905C179.015 147.721 179.539 148.628 179.906 149.626C180.284 150.617 180.473 151.617 180.473 152.627ZM178.125 150.523C178.114 149.844 177.903 149.186 177.493 148.55C177.083 147.902 176.581 147.407 175.987 147.064C175.426 146.74 174.951 146.665 174.562 146.839C174.184 147.008 173.952 147.416 173.866 148.064L178.125 150.523ZM194.568 155.81L189.014 167.861L186.602 166.468L188.545 162.429L184.949 150.256L187.492 151.724L189.808 160.298L192.155 154.417L194.568 155.81ZM199.774 169.343C198.911 168.845 198.133 168.178 197.442 167.342C196.751 166.495 196.206 165.55 195.807 164.51C195.418 163.475 195.224 162.428 195.224 161.368C195.224 160.309 195.423 159.489 195.823 158.909C196.233 158.336 196.789 158.034 197.491 158.002C198.192 157.959 198.975 158.186 199.839 158.685C200.702 159.184 201.485 159.86 202.187 160.714C202.888 161.555 203.439 162.497 203.838 163.537C204.249 164.585 204.454 165.638 204.454 166.698C204.454 167.757 204.243 168.571 203.822 169.138C203.412 169.711 202.851 170.017 202.138 170.054C201.437 170.085 200.649 169.848 199.774 169.343ZM199.774 167.062C200.184 167.299 200.568 167.408 200.924 167.389C201.291 167.364 201.582 167.184 201.798 166.847C202.014 166.51 202.122 166.012 202.122 165.351C202.122 164.366 201.895 163.481 201.442 162.696C200.999 161.904 200.454 161.322 199.806 160.948C199.159 160.574 198.613 160.527 198.171 160.807C197.739 161.082 197.523 161.711 197.523 162.696C197.523 163.681 197.734 164.563 198.155 165.342C198.587 166.115 199.126 166.688 199.774 167.062ZM214.586 167.368L214.586 177.727L212.303 176.409L212.303 175.1C212.011 175.38 211.628 175.514 211.153 175.502C210.689 175.483 210.181 175.315 209.631 174.997C208.929 174.592 208.308 174.065 207.769 173.417C207.229 172.756 206.802 172.005 206.489 171.164C206.187 170.316 206.036 169.431 206.036 168.509L206.036 162.431L208.303 163.74L208.303 169.444C208.303 170.266 208.481 171.005 208.837 171.659C209.194 172.301 209.679 172.8 210.295 173.155C210.921 173.517 211.412 173.582 211.768 173.352C212.125 173.109 212.303 172.576 212.303 171.753L212.302 166.05L214.586 167.368ZM219.09 171.577C219.381 171.197 219.759 170.985 220.223 170.941C220.698 170.904 221.238 171.059 221.842 171.409L221.842 174.157L221.243 173.811C220.531 173.4 219.991 173.281 219.624 173.456C219.268 173.637 219.09 174.207 219.09 175.167L219.09 180.328L216.823 179.019L216.822 168.66L219.09 169.969L219.09 171.577ZM231.341 179.193L229.77 178.286L229.771 186.495L227.471 185.167L227.471 176.958L226.451 176.369L226.451 174.219L227.471 174.808L227.471 174.284C227.471 173.013 227.784 172.259 228.41 172.022C229.036 171.785 229.981 172.05 231.244 172.817L231.244 175.023C230.693 174.693 230.31 174.577 230.094 174.677C229.878 174.777 229.77 175.12 229.77 175.706L229.77 176.136L231.341 177.043L231.341 179.193ZM233.96 177.321C233.56 177.09 233.226 176.753 232.956 176.311C232.697 175.862 232.567 175.419 232.567 174.983C232.567 174.547 232.697 174.26 232.956 174.123C233.226 173.98 233.56 174.023 233.96 174.254C234.359 174.485 234.688 174.824 234.947 175.273C235.217 175.716 235.352 176.155 235.352 176.591C235.352 177.028 235.217 177.317 234.948 177.461C234.688 177.598 234.359 177.551 233.96 177.321ZM235.077 179.2L235.077 189.559L232.81 188.25L232.81 177.891L235.077 179.2ZM239.584 183.41C239.876 183.03 240.253 182.818 240.718 182.774C241.193 182.737 241.732 182.893 242.337 183.242L242.337 185.991L241.738 185.645C241.025 185.233 240.486 185.115 240.118 185.289C239.762 185.47 239.584 186.04 239.584 187L239.584 192.161L237.317 190.852L237.317 180.493L239.584 181.802L239.584 183.41ZM247.297 196.783C246.563 196.359 245.904 195.829 245.322 195.193C244.739 194.545 244.274 193.859 243.929 193.136C243.594 192.42 243.411 191.734 243.378 191.079L245.661 192.398C245.705 192.822 245.872 193.249 246.163 193.679C246.466 194.115 246.838 194.461 247.281 194.716C247.713 194.966 248.047 195.059 248.285 194.997C248.533 194.941 248.657 194.757 248.657 194.445C248.657 194.109 248.506 193.772 248.204 193.436C247.912 193.093 247.443 192.635 246.795 192.061C246.126 191.488 245.575 190.977 245.143 190.528C244.722 190.085 244.355 189.568 244.042 188.976C243.74 188.39 243.589 187.748 243.589 187.05C243.589 186.476 243.729 186.034 244.01 185.722C244.301 185.417 244.711 185.28 245.24 185.311C245.78 185.348 246.412 185.576 247.135 185.994C248.204 186.611 249.056 187.415 249.693 188.406C250.33 189.384 250.681 190.416 250.746 191.5L248.576 190.248C248.544 189.817 248.393 189.406 248.123 189.013C247.864 188.614 247.513 188.287 247.07 188.032C246.66 187.795 246.341 187.698 246.115 187.742C245.899 187.792 245.791 187.972 245.791 188.284C245.791 188.633 245.942 188.988 246.244 189.35C246.547 189.699 247.016 190.151 247.653 190.706C248.301 191.267 248.835 191.768 249.256 192.211C249.677 192.653 250.039 193.174 250.341 193.772C250.654 194.364 250.816 195.006 250.827 195.698C250.827 196.297 250.681 196.748 250.39 197.054C250.109 197.366 249.699 197.503 249.159 197.465C248.63 197.422 248.01 197.194 247.297 196.783ZM255.327 193.042L255.328 198.054C255.328 198.403 255.398 198.699 255.538 198.942C255.689 199.179 255.938 199.397 256.283 199.596L257.336 200.204L257.336 202.411L255.911 201.588C254 200.484 253.044 198.861 253.044 196.717L253.044 191.724L251.975 191.107L251.975 188.957L253.044 189.574L253.044 187.012L255.327 188.33L255.327 190.892L257.335 192.051L257.335 194.202L255.327 193.042ZM265.091 198.026C265.383 197.72 265.782 197.558 266.29 197.54C266.808 197.515 267.396 197.692 268.055 198.073C268.821 198.515 269.512 199.132 270.128 199.924C270.754 200.722 271.245 201.629 271.601 202.644C271.968 203.654 272.152 204.689 272.152 205.748C272.152 206.808 271.968 207.643 271.601 208.254C271.245 208.859 270.754 209.205 270.128 209.292C269.512 209.385 268.822 209.211 268.055 208.768C267.397 208.388 266.814 207.896 266.306 207.291C265.81 206.693 265.405 206.066 265.092 205.412L265.092 211.825L262.825 210.516L262.824 195.221L265.091 196.53L265.091 198.026ZM269.836 204.411C269.836 203.788 269.723 203.187 269.496 202.607C269.28 202.021 268.989 201.504 268.622 201.055C268.265 200.612 267.877 200.27 267.456 200.027C267.045 199.79 266.657 199.69 266.29 199.727C265.934 199.758 265.642 199.939 265.415 200.27C265.2 200.606 265.092 201.086 265.092 201.709C265.092 202.333 265.2 202.937 265.416 203.523C265.642 204.115 265.934 204.639 266.29 205.094C266.657 205.543 267.046 205.885 267.456 206.122C267.877 206.365 268.266 206.465 268.622 206.422C268.989 206.384 269.28 206.197 269.496 205.861C269.723 205.53 269.836 205.047 269.836 204.411ZM276.066 204.475C276.358 204.094 276.735 203.883 277.2 203.839C277.675 203.802 278.214 203.957 278.819 204.306L278.819 207.055L278.22 206.709C277.507 206.298 276.968 206.179 276.601 206.354C276.244 206.535 276.066 207.105 276.066 208.065L276.066 213.226L273.799 211.917L273.799 201.558L276.066 202.867L276.066 204.475ZM281.496 204.767C281.096 204.537 280.761 204.2 280.492 203.758C280.232 203.309 280.103 202.866 280.103 202.43C280.103 201.994 280.232 201.707 280.492 201.57C280.761 201.427 281.096 201.47 281.495 201.701C281.895 201.931 282.224 202.271 282.483 202.72C282.753 203.162 282.888 203.602 282.888 204.038C282.888 204.474 282.753 204.764 282.483 204.908C282.224 205.045 281.895 204.998 281.496 204.767ZM282.613 206.647L282.613 217.006L280.346 215.697L280.346 205.338L282.613 206.647ZM288.594 218.047L290.86 211.409L293.273 212.802L289.954 221.244L287.201 219.655L283.897 207.388L286.326 208.791L288.594 218.047ZM293.964 218.343C293.964 217.295 294.142 216.47 294.498 215.865C294.865 215.267 295.356 214.927 295.972 214.846C296.598 214.771 297.294 214.955 298.06 215.398C298.73 215.784 299.313 216.277 299.809 216.875C300.317 217.479 300.722 218.106 301.024 218.754L301.024 217.277L303.307 218.595L303.307 228.954L301.024 227.636L301.024 226.121C300.733 226.439 300.328 226.611 299.81 226.636C299.302 226.654 298.714 226.47 298.045 226.084C297.289 225.648 296.598 225.024 295.972 224.214C295.357 223.41 294.865 222.497 294.498 221.475C294.142 220.446 293.964 219.402 293.964 218.343ZM301.024 222.456C301.024 221.821 300.916 221.216 300.7 220.643C300.484 220.057 300.193 219.539 299.826 219.091C299.459 218.629 299.065 218.277 298.644 218.034C298.222 217.791 297.834 217.685 297.478 217.716C297.121 217.747 296.83 217.928 296.603 218.258C296.387 218.583 296.279 219.056 296.279 219.68C296.279 220.303 296.387 220.914 296.603 221.512C296.83 222.104 297.122 222.628 297.478 223.083C297.845 223.544 298.233 223.893 298.644 224.13C299.065 224.373 299.459 224.482 299.826 224.457C300.193 224.42 300.484 224.239 300.7 223.915C300.916 223.578 301.024 223.092 301.024 222.456ZM304.938 224.717C304.938 223.645 305.127 222.819 305.505 222.239C305.883 221.647 306.406 221.326 307.076 221.276C307.745 221.214 308.512 221.432 309.375 221.931C310.487 222.573 311.405 223.427 312.128 224.492C312.862 225.552 313.353 226.733 313.602 228.036L311.157 226.624C311.027 226.101 310.806 225.624 310.493 225.194C310.19 224.757 309.812 224.408 309.359 224.146C308.711 223.772 308.199 223.751 307.821 224.081C307.443 224.399 307.254 225.056 307.254 226.054C307.254 227.038 307.443 227.914 307.821 228.681C308.199 229.435 308.712 229.999 309.359 230.373C310.277 230.903 310.876 230.775 311.157 229.99L313.602 231.402C313.354 232.38 312.862 232.988 312.128 233.225C311.394 233.462 310.477 233.262 309.376 232.626C308.512 232.128 307.745 231.467 307.076 230.644C306.407 229.809 305.883 228.883 305.505 227.867C305.127 226.839 304.938 225.789 304.938 224.717ZM323.845 230.454L318.291 242.505L315.878 241.112L317.821 237.073L314.226 224.9L316.768 226.368L319.084 234.941L321.432 229.061L323.845 230.454ZM191.212 175.872L188.589 184.716L186.144 183.304L184.508 175.124L182.873 181.416L180.411 179.995L177.772 168.112L180.071 169.439L181.658 178.246L183.374 171.347L185.771 172.73L187.455 181.575L189.042 174.619L191.212 175.872ZM200.778 186.35C200.778 186.724 200.757 187.049 200.713 187.323L194.155 183.536C194.209 184.315 194.436 185.032 194.835 185.686C195.235 186.341 195.726 186.836 196.309 187.173C197.151 187.659 197.75 187.588 198.106 186.958L200.552 188.37C200.292 189.218 199.796 189.754 199.062 189.978C198.328 190.19 197.426 189.987 196.358 189.37C195.494 188.871 194.717 188.205 194.026 187.369C193.346 186.528 192.811 185.59 192.423 184.555C192.045 183.527 191.856 182.483 191.856 181.423C191.856 180.351 192.045 179.519 192.422 178.927C192.8 178.335 193.329 178.017 194.009 177.973C194.689 177.93 195.472 178.163 196.357 178.675C197.21 179.167 197.971 179.818 198.641 180.629C199.321 181.445 199.844 182.352 200.211 183.349C200.589 184.34 200.778 185.341 200.778 186.35ZM198.43 184.247C198.419 183.567 198.209 182.91 197.799 182.274C197.388 181.626 196.886 181.13 196.293 180.787C195.731 180.463 195.256 180.389 194.868 180.563C194.49 180.731 194.258 181.14 194.171 181.788L198.43 184.247ZM204.7 185.174C204.991 184.844 205.391 184.669 205.898 184.651C206.416 184.638 207.005 184.822 207.663 185.202C208.43 185.645 209.121 186.262 209.736 187.054C210.362 187.852 210.853 188.758 211.21 189.774C211.577 190.784 211.76 191.819 211.76 192.878C211.76 193.938 211.577 194.773 211.21 195.384C210.853 195.989 210.362 196.334 209.736 196.422C209.121 196.515 208.43 196.341 207.663 195.898C206.994 195.512 206.406 195.022 205.898 194.43C205.402 193.832 205.002 193.202 204.7 192.542L204.7 194.019L202.433 192.71L202.433 178.873L204.7 180.182L204.7 185.174ZM209.445 191.541C209.445 190.918 209.331 190.317 209.104 189.737C208.889 189.151 208.597 188.634 208.23 188.185C207.874 187.742 207.485 187.4 207.064 187.156C206.654 186.92 206.265 186.82 205.898 186.857C205.542 186.888 205.25 187.069 205.024 187.399C204.808 187.736 204.7 188.216 204.7 188.839C204.7 189.463 204.808 190.067 205.024 190.653C205.251 191.245 205.542 191.769 205.898 192.224C206.265 192.673 206.654 193.015 207.064 193.252C207.485 193.495 207.874 193.595 208.23 193.551C208.597 193.514 208.889 193.327 209.105 192.99C209.331 192.66 209.445 192.177 209.445 191.541ZM213.181 188.874C213.235 187.659 213.612 186.917 214.314 186.649C215.027 186.375 215.96 186.571 217.116 187.238C217.904 187.693 218.578 188.245 219.14 188.893C219.701 189.529 220.122 190.202 220.403 190.913C220.694 191.617 220.84 192.312 220.84 192.998C220.84 193.783 220.662 194.347 220.306 194.69C219.96 195.027 219.545 195.148 219.059 195.055L219.059 195.129C219.685 195.715 220.171 196.395 220.516 197.168C220.873 197.947 221.051 198.785 221.051 199.682C221.051 200.43 220.9 201.01 220.597 201.421C220.306 201.839 219.869 202.048 219.286 202.048C218.714 202.042 218.023 201.805 217.213 201.337C215.993 200.633 215 199.704 214.234 198.551C213.467 197.398 213.062 196.117 213.019 194.708L215.221 195.98C215.243 196.603 215.421 197.199 215.756 197.766C216.101 198.327 216.571 198.779 217.164 199.121C217.715 199.439 218.136 199.508 218.428 199.327C218.73 199.14 218.881 198.766 218.881 198.205C218.881 197.457 218.676 196.803 218.266 196.242C217.855 195.681 217.218 195.151 216.355 194.652L215.885 194.381L215.885 192.231L216.355 192.502C217.888 193.387 218.654 193.238 218.654 192.053C218.654 191.517 218.514 191.019 218.233 190.557C217.963 190.102 217.569 189.725 217.051 189.426C216.543 189.133 216.149 189.068 215.869 189.23C215.599 189.386 215.442 189.694 215.399 190.155L213.181 188.874ZM228.109 195.942C227.71 195.712 227.375 195.375 227.105 194.932C226.846 194.484 226.717 194.041 226.717 193.605C226.717 193.169 226.846 192.882 227.105 192.745C227.375 192.601 227.71 192.645 228.109 192.876C228.509 193.106 228.838 193.446 229.097 193.895C229.367 194.337 229.502 194.777 229.502 195.213C229.502 195.649 229.367 195.939 229.097 196.082C228.838 196.22 228.509 196.173 228.109 195.942ZM229.227 197.821L229.227 208.18L226.96 206.871L226.96 196.512L229.227 197.821ZM230.884 203.92C230.884 202.873 231.062 202.047 231.418 201.443C231.785 200.844 232.282 200.508 232.908 200.433C233.534 200.358 234.23 200.542 234.997 200.985C235.58 201.321 236.136 201.792 236.665 202.396C237.194 202.989 237.615 203.618 237.928 204.285L237.928 199.367L240.227 200.695L240.227 214.532L237.928 213.204L237.928 211.671C237.647 212.02 237.253 212.204 236.746 212.223C236.239 212.241 235.65 212.057 234.981 211.671C234.225 211.235 233.534 210.611 232.908 209.801C232.282 208.991 231.785 208.074 231.418 207.052C231.062 206.024 230.884 204.98 230.884 203.92ZM237.944 208.034C237.944 207.398 237.836 206.794 237.62 206.22C237.404 205.634 237.113 205.117 236.746 204.668C236.379 204.207 235.985 203.855 235.564 203.612C235.143 203.369 234.754 203.263 234.398 203.294C234.041 203.325 233.75 203.506 233.523 203.836C233.307 204.16 233.199 204.634 233.199 205.257C233.199 205.881 233.307 206.491 233.523 207.09C233.75 207.682 234.042 208.205 234.398 208.66C234.765 209.122 235.154 209.471 235.564 209.708C235.985 209.951 236.379 210.06 236.746 210.035C237.113 209.997 237.404 209.817 237.62 209.493C237.836 209.156 237.944 208.67 237.944 208.034ZM250.781 215.222C250.781 215.596 250.759 215.92 250.716 216.194L244.158 212.407C244.212 213.186 244.439 213.903 244.838 214.558C245.238 215.212 245.729 215.708 246.312 216.044C247.154 216.53 247.753 216.459 248.109 215.829L250.554 217.241C250.295 218.089 249.799 218.625 249.065 218.849C248.331 219.061 247.429 218.858 246.36 218.241C245.497 217.743 244.719 217.076 244.029 216.241C243.348 215.399 242.814 214.461 242.425 213.426C242.047 212.398 241.859 211.354 241.858 210.294C241.858 209.222 242.047 208.39 242.425 207.798C242.803 207.206 243.332 206.888 244.012 206.844C244.692 206.801 245.475 207.035 246.36 207.546C247.213 208.038 247.974 208.69 248.643 209.5C249.323 210.316 249.847 211.223 250.214 212.221C250.592 213.212 250.781 214.212 250.781 215.222ZM248.433 213.118C248.422 212.439 248.212 211.781 247.801 211.145C247.391 210.497 246.889 210.002 246.295 209.659C245.734 209.335 245.259 209.26 244.87 209.434C244.493 209.603 244.26 210.011 244.174 210.659L248.433 213.118ZM257.407 213.943C258.476 214.56 259.339 215.451 259.998 216.617C260.656 217.77 260.986 219.045 260.986 220.441L260.986 226.518L258.719 225.209L258.719 219.487C258.719 218.664 258.54 217.932 258.184 217.29C257.828 216.635 257.342 216.131 256.727 215.775C256.101 215.414 255.604 215.351 255.237 215.588C254.881 215.819 254.703 216.345 254.703 217.168L254.703 222.89L252.436 221.581L252.435 211.222L254.703 212.531L254.703 213.821C255.005 213.547 255.388 213.419 255.852 213.438C256.327 213.45 256.845 213.619 257.407 213.943ZM265.781 221.078L265.781 226.089C265.781 226.438 265.851 226.734 265.992 226.977C266.143 227.214 266.391 227.432 266.736 227.632L267.789 228.239L267.789 230.446L266.364 229.623C264.453 228.52 263.498 226.896 263.498 224.752L263.498 219.76L262.429 219.142L262.429 216.992L263.498 217.609L263.498 215.047L265.781 216.366L265.781 218.927L267.789 220.087L267.789 222.237L265.781 221.078ZM270.569 220.458C270.17 220.227 269.835 219.891 269.565 219.448C269.306 219 269.176 218.557 269.176 218.121C269.176 217.684 269.306 217.398 269.565 217.261C269.835 217.117 270.17 217.161 270.569 217.392C270.968 217.622 271.298 217.962 271.557 218.411C271.827 218.853 271.962 219.293 271.962 219.729C271.962 220.165 271.827 220.455 271.557 220.598C271.298 220.735 270.968 220.689 270.569 220.458ZM271.686 222.337L271.687 232.696L269.42 231.387L269.419 221.028L271.686 222.337ZM276.566 227.305L276.566 232.316C276.566 232.665 276.636 232.961 276.777 233.204C276.928 233.441 277.176 233.659 277.521 233.859L278.574 234.467L278.574 236.673L277.149 235.85C275.238 234.747 274.283 233.123 274.283 230.979L274.283 225.987L273.214 225.37L273.214 223.219L274.283 223.836L274.282 221.275L276.566 222.593L276.566 225.155L278.574 226.314L278.574 228.464L276.566 227.305ZM288.787 232.211L283.233 244.262L280.82 242.869L282.763 238.83L279.168 226.657L281.71 228.125L284.026 236.698L286.374 230.818L288.787 232.211Z" fill="black"/>
<path opacity="0.6" d="M160.979 201.146C160.726 201 160.499 200.817 160.297 200.599C160.099 200.379 159.943 200.145 159.829 199.897C159.715 199.645 159.656 199.397 159.653 199.153L160.187 199.461C160.205 199.68 160.278 199.898 160.407 200.116C160.539 200.332 160.73 200.512 160.979 200.656C161.218 200.794 161.405 200.834 161.541 200.777C161.68 200.718 161.75 200.58 161.75 200.364C161.75 200.195 161.709 200.034 161.629 199.881C161.548 199.728 161.447 199.59 161.326 199.465C161.205 199.34 161.042 199.186 160.836 199.004C160.583 198.781 160.379 198.588 160.225 198.422C160.075 198.259 159.944 198.065 159.834 197.841C159.728 197.614 159.675 197.363 159.675 197.088C159.675 196.846 159.728 196.663 159.834 196.538C159.941 196.413 160.089 196.355 160.28 196.363C160.475 196.374 160.697 196.451 160.946 196.595C161.306 196.803 161.599 197.076 161.827 197.415C162.058 197.756 162.188 198.107 162.218 198.467L161.667 198.149C161.649 197.969 161.572 197.776 161.436 197.571C161.3 197.361 161.12 197.191 160.897 197.062C160.687 196.941 160.517 196.906 160.385 196.957C160.253 197.004 160.187 197.139 160.187 197.364C160.187 197.525 160.225 197.679 160.302 197.825C160.383 197.973 160.48 198.108 160.594 198.228C160.711 198.347 160.875 198.501 161.084 198.689C161.337 198.916 161.541 199.114 161.695 199.284C161.849 199.449 161.981 199.646 162.091 199.875C162.201 200.099 162.256 200.351 162.256 200.631C162.256 200.847 162.207 201.022 162.108 201.155C162.008 201.289 161.862 201.359 161.667 201.365C161.473 201.371 161.243 201.298 160.979 201.146ZM165.745 201.978C165.745 202.088 165.74 202.202 165.729 202.318L163.318 200.926C163.336 201.28 163.437 201.607 163.621 201.908C163.808 202.207 164.034 202.433 164.298 202.585C164.514 202.71 164.694 202.757 164.837 202.725C164.984 202.691 165.087 202.594 165.145 202.433L165.685 202.744C165.604 203.032 165.443 203.212 165.2 203.284C164.958 203.352 164.657 203.282 164.298 203.075C164.012 202.909 163.755 202.687 163.527 202.407C163.303 202.13 163.127 201.818 162.999 201.473C162.87 201.123 162.806 200.768 162.806 200.408C162.806 200.048 162.868 199.768 162.993 199.569C163.118 199.37 163.292 199.263 163.516 199.248C163.744 199.231 164.004 199.308 164.298 199.477C164.584 199.642 164.837 199.861 165.057 200.132C165.277 200.403 165.446 200.7 165.564 201.022C165.685 201.342 165.745 201.66 165.745 201.978ZM165.228 201.559C165.228 201.338 165.186 201.126 165.101 200.92C165.017 200.71 164.901 200.523 164.755 200.358C164.611 200.19 164.452 200.056 164.276 199.954C164.022 199.808 163.806 199.776 163.626 199.859C163.45 199.943 163.349 200.143 163.323 200.459L165.228 201.559ZM166.219 202.373C166.219 202.017 166.282 201.741 166.406 201.546C166.531 201.347 166.702 201.236 166.918 201.213C167.138 201.192 167.383 201.258 167.65 201.413C167.915 201.566 168.144 201.764 168.338 202.007C168.533 202.251 168.678 202.5 168.773 202.754L168.773 202.119L169.28 202.411L169.28 205.894L168.773 205.602L168.773 204.953C168.674 205.099 168.526 205.183 168.328 205.204C168.133 205.223 167.906 205.158 167.645 205.007C167.377 204.853 167.135 204.636 166.918 204.359C166.702 204.081 166.531 203.769 166.407 203.421C166.282 203.074 166.219 202.724 166.219 202.373ZM168.773 203.854C168.773 203.591 168.727 203.336 168.636 203.088C168.544 202.84 168.419 202.62 168.261 202.427C168.107 202.232 167.937 202.08 167.749 201.972C167.562 201.864 167.392 201.817 167.238 201.829C167.083 201.842 166.961 201.919 166.869 202.061C166.777 202.203 166.731 202.406 166.731 202.668C166.731 202.935 166.777 203.195 166.869 203.447C166.961 203.695 167.084 203.916 167.238 204.111C167.392 204.302 167.562 204.451 167.75 204.559C167.937 204.667 168.107 204.715 168.261 204.702C168.419 204.687 168.544 204.609 168.636 204.467C168.727 204.321 168.773 204.116 168.773 203.854ZM170.627 203.755C170.715 203.606 170.84 203.524 171.001 203.507C171.166 203.492 171.366 203.552 171.601 203.688L171.601 204.285L171.469 204.209C170.908 203.885 170.627 204.074 170.627 204.778L170.627 206.672L170.126 206.383L170.126 202.9L170.627 203.189L170.627 203.755ZM171.992 205.712C171.992 205.352 172.055 205.075 172.179 204.88C172.304 204.681 172.477 204.57 172.697 204.549C172.921 204.53 173.176 204.603 173.462 204.769C173.832 204.983 174.137 205.262 174.376 205.608C174.618 205.955 174.777 206.335 174.854 206.748L174.315 206.437C174.264 206.195 174.163 205.97 174.012 205.76C173.866 205.552 173.682 205.385 173.462 205.258C173.176 205.093 172.945 205.074 172.768 205.201C172.592 205.324 172.504 205.593 172.504 206.008C172.504 206.427 172.592 206.802 172.768 207.133C172.945 207.463 173.176 207.711 173.462 207.877C173.682 208.004 173.866 208.05 174.012 208.016C174.159 207.983 174.26 207.871 174.315 207.683L174.855 207.994C174.774 208.303 174.612 208.496 174.37 208.573C174.128 208.645 173.825 208.576 173.462 208.366C173.176 208.201 172.921 207.979 172.697 207.702C172.477 207.426 172.304 207.117 172.179 206.774C172.055 206.431 171.992 206.077 171.992 205.712ZM177.02 206.817C177.247 206.948 177.453 207.124 177.636 207.344C177.82 207.56 177.963 207.81 178.066 208.094C178.172 208.38 178.225 208.684 178.225 209.006L178.225 211.059L177.73 210.773L177.73 208.803C177.73 208.455 177.655 208.147 177.504 207.878C177.354 207.605 177.148 207.393 176.888 207.242C176.624 207.09 176.413 207.063 176.255 207.163C176.101 207.265 176.024 207.498 176.024 207.862L176.024 209.788L175.523 209.499L175.523 204.795L176.024 205.085L176.024 206.801C176.123 206.68 176.259 206.621 176.431 206.623C176.607 206.627 176.803 206.692 177.02 206.817ZM183.527 214.12L183.027 213.831L181.012 209.141L181.012 212.668L180.511 212.379L180.511 207.942L181.012 208.232L183.026 212.916L183.026 209.395L183.527 209.684L183.527 214.12ZM184.194 212.751C184.194 212.395 184.256 212.12 184.381 211.925C184.506 211.726 184.677 211.615 184.893 211.591C185.113 211.57 185.357 211.637 185.625 211.791C185.889 211.944 186.119 212.142 186.313 212.386C186.508 212.629 186.653 212.878 186.748 213.133L186.748 212.497L187.254 212.789L187.254 216.272L186.748 215.98L186.748 215.332C186.649 215.478 186.5 215.562 186.302 215.583C186.108 215.602 185.88 215.536 185.62 215.386C185.352 215.231 185.11 215.015 184.893 214.737C184.677 214.46 184.506 214.147 184.381 213.8C184.256 213.452 184.194 213.103 184.194 212.751ZM186.748 214.232C186.748 213.969 186.702 213.714 186.61 213.466C186.519 213.218 186.394 212.998 186.236 212.805C186.082 212.61 185.911 212.459 185.724 212.351C185.537 212.243 185.366 212.195 185.212 212.208C185.058 212.22 184.935 212.298 184.843 212.44C184.752 212.582 184.706 212.784 184.706 213.047C184.706 213.314 184.752 213.573 184.844 213.825C184.935 214.073 185.058 214.295 185.212 214.49C185.366 214.68 185.537 214.83 185.724 214.938C185.911 215.046 186.082 215.093 186.236 215.081C186.394 215.066 186.519 214.987 186.61 214.845C186.702 214.699 186.748 214.495 186.748 214.232ZM191.728 215.309C191.963 215.445 192.172 215.623 192.356 215.843C192.539 216.059 192.684 216.31 192.79 216.596C192.897 216.882 192.95 217.186 192.95 217.508L192.95 219.561L192.455 219.275L192.455 217.305C192.455 216.957 192.379 216.649 192.229 216.38C192.082 216.109 191.882 215.9 191.629 215.754C191.368 215.603 191.161 215.581 191.007 215.687C190.853 215.789 190.776 216.022 190.776 216.386L190.776 218.306L190.281 218.02L190.28 216.049C190.28 215.702 190.205 215.394 190.055 215.125C189.908 214.853 189.708 214.645 189.455 214.498C189.194 214.348 188.987 214.326 188.833 214.432C188.679 214.533 188.602 214.766 188.602 215.131L188.602 217.05L188.101 216.761L188.101 213.278L188.602 213.567L188.602 214.069C188.701 213.944 188.833 213.881 188.998 213.879C189.167 213.879 189.352 213.937 189.554 214.054C189.807 214.2 190.031 214.395 190.225 214.638C190.42 214.882 190.565 215.158 190.66 215.468C190.745 215.271 190.884 215.161 191.079 215.137C191.273 215.114 191.49 215.171 191.728 215.309ZM196.524 219.75C196.524 219.86 196.518 219.973 196.507 220.09L194.096 218.698C194.115 219.051 194.216 219.379 194.399 219.68C194.586 219.978 194.812 220.204 195.076 220.356C195.293 220.481 195.472 220.528 195.616 220.496C195.762 220.462 195.865 220.365 195.924 220.204L196.463 220.515C196.383 220.804 196.221 220.984 195.979 221.056C195.737 221.123 195.436 221.053 195.076 220.846C194.79 220.681 194.533 220.458 194.306 220.178C194.082 219.901 193.906 219.589 193.777 219.244C193.649 218.895 193.585 218.54 193.585 218.18C193.584 217.819 193.647 217.54 193.772 217.341C193.896 217.141 194.071 217.034 194.294 217.02C194.522 217.003 194.783 217.079 195.076 217.248C195.362 217.414 195.616 217.632 195.836 217.903C196.056 218.174 196.225 218.471 196.342 218.793C196.463 219.113 196.524 219.432 196.524 219.75ZM196.006 219.33C196.006 219.11 195.964 218.897 195.88 218.691C195.795 218.481 195.68 218.294 195.533 218.129C195.39 217.961 195.23 217.827 195.054 217.725C194.801 217.579 194.584 217.547 194.405 217.63C194.228 217.715 194.128 217.915 194.102 218.23L196.006 219.33ZM198.253 222.68C198.022 222.546 197.814 222.382 197.631 222.187C197.447 221.988 197.302 221.777 197.196 221.555C197.09 221.328 197.031 221.106 197.02 220.888L197.537 221.186C197.552 221.369 197.622 221.551 197.746 221.733C197.875 221.917 198.042 222.069 198.247 222.187C198.438 222.298 198.589 222.336 198.699 222.302C198.809 222.268 198.864 222.177 198.864 222.029C198.864 221.876 198.805 221.73 198.688 221.59C198.57 221.446 198.388 221.267 198.143 221.053C197.919 220.856 197.735 220.682 197.592 220.532C197.453 220.379 197.332 220.205 197.229 220.01C197.13 219.813 197.08 219.603 197.08 219.378C197.08 219.2 197.126 219.063 197.218 218.968C197.31 218.873 197.44 218.831 197.609 218.844C197.777 218.853 197.97 218.919 198.187 219.044C198.521 219.237 198.79 219.49 198.996 219.804C199.201 220.118 199.311 220.448 199.326 220.795L198.825 220.506C198.814 220.318 198.75 220.134 198.632 219.957C198.519 219.781 198.365 219.637 198.17 219.524C197.99 219.42 197.847 219.382 197.741 219.41C197.634 219.437 197.581 219.523 197.581 219.667C197.581 219.782 197.612 219.895 197.675 220.007C197.741 220.117 197.822 220.223 197.917 220.325C198.016 220.425 198.152 220.552 198.324 220.706C198.541 220.899 198.717 221.069 198.853 221.215C198.988 221.357 199.104 221.521 199.199 221.708C199.299 221.896 199.35 222.097 199.354 222.311C199.354 222.502 199.308 222.647 199.216 222.747C199.124 222.846 198.994 222.892 198.825 222.883C198.66 222.873 198.469 222.805 198.253 222.68Z" fill="black"/>
<path d="M250.632 252.904C250.537 252.849 250.456 252.764 250.39 252.65C250.324 252.535 250.291 252.423 250.291 252.313C250.291 252.203 250.324 252.129 250.39 252.091C250.456 252.052 250.537 252.061 250.632 252.116C250.724 252.169 250.801 252.252 250.863 252.364C250.929 252.478 250.962 252.591 250.962 252.701C250.962 252.811 250.929 252.885 250.863 252.923C250.801 252.963 250.724 252.957 250.632 252.904ZM252.856 251.144L252.223 250.778L252.223 253.784L251.722 253.495L251.722 250.489L251.331 250.263L251.331 249.787L251.722 250.012L251.722 249.764C251.722 249.374 251.808 249.14 251.98 249.062C252.156 248.981 252.437 249.052 252.822 249.275L252.823 249.758C252.602 249.631 252.446 249.592 252.355 249.64C252.267 249.687 252.223 249.825 252.223 250.053L252.223 250.301L252.856 250.667L252.856 251.144ZM253.94 251.859C254.029 251.711 254.153 251.628 254.315 251.611C254.48 251.596 254.68 251.657 254.915 251.792L254.915 252.39L254.783 252.313C254.221 251.989 253.94 252.179 253.941 252.882L253.941 254.776L253.44 254.487L253.44 251.004L253.94 251.293L253.94 251.859ZM255.306 253.81C255.306 253.454 255.368 253.179 255.493 252.984C255.618 252.785 255.788 252.674 256.005 252.65C256.225 252.629 256.469 252.696 256.737 252.851C257.001 253.003 257.23 253.201 257.425 253.445C257.619 253.689 257.764 253.938 257.86 254.192L257.86 253.556L258.366 253.849L258.366 257.332L257.86 257.039L257.86 256.391C257.761 256.537 257.612 256.621 257.414 256.642C257.219 256.661 256.992 256.595 256.731 256.445C256.464 256.29 256.221 256.074 256.005 255.797C255.788 255.519 255.618 255.207 255.493 254.859C255.368 254.512 255.306 254.162 255.306 253.81ZM257.86 255.291C257.86 255.029 257.814 254.773 257.722 254.525C257.63 254.278 257.506 254.057 257.348 253.864C257.194 253.67 257.023 253.518 256.836 253.41C256.649 253.302 256.478 253.254 256.324 253.267C256.17 253.28 256.047 253.357 255.955 253.499C255.864 253.641 255.818 253.843 255.818 254.106C255.818 254.373 255.864 254.632 255.955 254.884C256.047 255.132 256.17 255.354 256.324 255.549C256.478 255.739 256.649 255.889 256.836 255.997C257.023 256.105 257.194 256.153 257.348 256.14C257.506 256.125 257.63 256.047 257.722 255.905C257.814 255.758 257.86 255.554 257.86 255.291Z" fill="black"/>
<rect x="0.13761" y="0.238348" width="35.2748" height="14.9362" rx="7.46808" transform="matrix(0.86601 0.500028 3.18506e-05 1 269.847 254.022)" fill="black"/>
<path d="M278.286 268.192C278.055 268.058 277.847 267.892 277.662 267.694C277.477 267.492 277.332 267.274 277.226 267.042C277.12 266.809 277.068 266.578 277.068 266.35L277.672 266.699C277.685 266.878 277.743 267.052 277.845 267.222C277.951 267.394 278.098 267.534 278.286 267.642C278.481 267.755 278.633 267.789 278.742 267.745C278.851 267.698 278.905 267.588 278.905 267.417C278.905 267.283 278.871 267.154 278.801 267.03C278.735 266.908 278.651 266.795 278.549 266.69C278.45 266.587 278.311 266.457 278.133 266.301C277.908 266.103 277.725 265.928 277.583 265.778C277.444 265.625 277.325 265.446 277.226 265.24C277.127 265.034 277.077 264.807 277.077 264.559C277.077 264.33 277.127 264.159 277.226 264.044C277.325 263.93 277.464 263.878 277.642 263.89C277.821 263.901 278.027 263.975 278.261 264.11C278.595 264.303 278.867 264.557 279.079 264.874C279.293 265.188 279.412 265.52 279.435 265.869L278.811 265.509C278.801 265.358 278.742 265.2 278.633 265.034C278.524 264.868 278.38 264.734 278.202 264.631C278.04 264.537 277.908 264.509 277.806 264.545C277.703 264.581 277.652 264.689 277.652 264.868C277.652 264.99 277.684 265.109 277.746 265.226C277.812 265.34 277.895 265.449 277.994 265.552C278.093 265.655 278.228 265.782 278.4 265.935C278.628 266.139 278.813 266.318 278.955 266.473C279.1 266.629 279.223 266.812 279.322 267.022C279.424 267.23 279.475 267.459 279.475 267.711C279.475 267.913 279.427 268.076 279.332 268.2C279.239 268.326 279.102 268.392 278.92 268.398C278.742 268.401 278.531 268.333 278.286 268.192ZM282.643 269.014C282.643 269.132 282.637 269.235 282.623 269.323L280.538 268.119C280.554 268.38 280.635 268.629 280.781 268.865C280.926 269.102 281.104 269.281 281.316 269.403C281.619 269.578 281.834 269.556 281.96 269.334L282.569 269.686C282.486 269.928 282.336 270.08 282.118 270.141C281.903 270.2 281.636 270.137 281.316 269.952C281.055 269.801 280.82 269.599 280.612 269.346C280.407 269.09 280.246 268.806 280.127 268.493C280.011 268.179 279.953 267.859 279.953 267.535C279.953 267.211 280.009 266.959 280.122 266.78C280.237 266.599 280.397 266.501 280.602 266.486C280.81 266.472 281.048 266.543 281.316 266.697C281.573 266.846 281.803 267.043 282.004 267.289C282.206 267.535 282.362 267.809 282.475 268.11C282.587 268.408 282.643 268.709 282.643 269.014ZM282.054 268.468C282.05 268.226 281.976 267.99 281.831 267.761C281.685 267.532 281.505 267.356 281.291 267.232C281.096 267.12 280.929 267.096 280.79 267.161C280.652 267.222 280.569 267.367 280.543 267.595L282.054 268.468ZM283.011 269.289C283.011 268.973 283.067 268.725 283.179 268.546C283.295 268.368 283.45 268.269 283.645 268.248C283.843 268.225 284.061 268.282 284.299 268.42C284.513 268.544 284.7 268.701 284.858 268.892C285.02 269.08 285.149 269.275 285.245 269.475L285.245 269.018L285.814 269.346L285.815 272.498L285.245 272.169L285.245 271.7C285.149 271.794 285.019 271.842 284.854 271.846C284.688 271.85 284.5 271.791 284.289 271.669C284.054 271.533 283.84 271.341 283.645 271.091C283.45 270.837 283.295 270.553 283.179 270.239C283.067 269.922 283.011 269.606 283.011 269.289ZM285.245 270.591C285.245 270.373 285.205 270.162 285.126 269.956C285.05 269.752 284.949 269.571 284.824 269.415C284.698 269.259 284.563 269.139 284.418 269.055C284.272 268.971 284.137 268.935 284.011 268.946C283.886 268.954 283.783 269.015 283.704 269.129C283.628 269.242 283.59 269.406 283.59 269.624C283.59 269.841 283.628 270.054 283.704 270.262C283.784 270.471 283.886 270.656 284.011 270.817C284.14 270.975 284.276 271.095 284.418 271.177C284.563 271.261 284.698 271.297 284.824 271.286C284.949 271.274 285.05 271.21 285.126 271.094C285.205 270.976 285.245 270.808 285.245 270.591ZM287.121 270.558C287.204 270.446 287.313 270.385 287.448 270.375C287.587 270.364 287.75 270.413 287.938 270.521L287.938 271.196L287.795 271.113C287.573 270.986 287.405 270.953 287.289 271.016C287.177 271.081 287.121 271.273 287.121 271.594L287.121 273.253L286.556 272.927L286.556 269.775L287.121 270.101L287.121 270.558ZM288.269 272.337C288.269 272.013 288.325 271.761 288.438 271.582C288.553 271.401 288.712 271.302 288.913 271.284C289.115 271.267 289.346 271.334 289.607 271.485C289.937 271.675 290.209 271.924 290.424 272.231C290.642 272.536 290.789 272.878 290.865 273.258L290.256 272.906C290.206 272.721 290.127 272.553 290.018 272.403C289.909 272.252 289.772 272.129 289.607 272.034C289.376 271.9 289.191 271.889 289.052 271.999C288.917 272.108 288.849 272.332 288.849 272.672C288.849 273.011 288.917 273.315 289.052 273.584C289.191 273.855 289.376 274.057 289.607 274.19C289.934 274.379 290.15 274.338 290.256 274.067L290.865 274.419C290.786 274.694 290.637 274.863 290.419 274.928C290.201 274.989 289.93 274.926 289.607 274.739C289.346 274.589 289.115 274.389 288.913 274.139C288.712 273.885 288.553 273.603 288.438 273.292C288.325 272.979 288.269 272.661 288.269 272.337ZM292.84 273.351C293.048 273.471 293.233 273.63 293.394 273.826C293.56 274.024 293.688 274.251 293.781 274.507C293.877 274.764 293.925 275.036 293.925 275.322L293.925 277.181L293.365 276.858L293.365 275.096C293.365 274.814 293.304 274.563 293.181 274.344C293.059 274.121 292.892 273.948 292.681 273.826C292.47 273.704 292.301 273.683 292.176 273.763C292.054 273.841 291.993 274.021 291.993 274.304L291.993 276.065L291.428 275.739L291.428 271.506L291.992 271.832L291.993 273.28C292.088 273.202 292.209 273.168 292.354 273.18C292.503 273.193 292.665 273.25 292.84 273.351Z" fill="white"/>
<rect x="0.13761" y="0.238348" width="35.2748" height="14.9362" rx="7.46808" transform="matrix(0.86601 0.500028 3.18506e-05 1 269.847 254.022)" stroke="black" stroke-width="0.317791"/>
<path d="M149.703 206.337L301.463 293.962" stroke="black"/>
<g clip-path="url(#clip0_117_2749)">
<path d="M151.144 195.414C152.436 196.159 153.483 195.555 153.483 194.063C153.483 192.572 152.436 190.758 151.144 190.012C149.852 189.266 148.805 189.87 148.805 191.362C148.805 192.854 149.852 194.668 151.144 195.414Z" stroke="black" stroke-width="0.953374"/>
<path d="M152.826 195.625L153.994 197.648" stroke="black" stroke-width="0.953374"/>
</g>
<path d="M281.992 149.065C282.363 149.28 282.688 149.55 282.965 149.876C283.246 150.201 283.462 150.561 283.612 150.957C283.766 151.351 283.843 151.752 283.843 152.162C283.843 152.571 283.766 152.882 283.613 153.094C283.462 153.309 283.246 153.416 282.965 153.416C282.688 153.414 282.363 153.306 281.992 153.092L280.853 152.434L280.853 148.408L281.992 149.065ZM281.992 152.553C282.4 152.788 282.713 152.841 282.93 152.712C283.148 152.583 283.256 152.286 283.256 151.823C283.256 151.355 283.148 150.928 282.93 150.54C282.713 150.151 282.4 149.84 281.992 149.604L281.425 149.277L281.425 152.225L281.992 152.553ZM286.001 155.447C285.676 155.259 285.377 155 285.103 154.667C284.832 154.333 284.616 153.963 284.455 153.558C284.298 153.15 284.219 152.75 284.219 152.356C284.219 151.962 284.298 151.654 284.455 151.432C284.616 151.212 284.832 151.093 285.102 151.075C285.377 151.056 285.676 151.14 286 151.328C286.328 151.517 286.628 151.778 286.899 152.113C287.173 152.445 287.389 152.813 287.546 153.216C287.703 153.62 287.782 154.019 287.782 154.413C287.782 154.806 287.703 155.116 287.546 155.342C287.389 155.564 287.173 155.685 286.899 155.704C286.628 155.722 286.328 155.636 286.001 155.447ZM286.001 154.873C286.231 155.006 286.437 155.065 286.618 155.05C286.798 155.03 286.939 154.938 287.039 154.772C287.143 154.604 287.195 154.371 287.195 154.074C287.195 153.776 287.143 153.486 287.039 153.202C286.939 152.92 286.798 152.667 286.618 152.443C286.437 152.219 286.231 152.04 286 151.907C285.77 151.774 285.564 151.715 285.383 151.73C285.203 151.746 285.061 151.835 284.957 152C284.857 152.166 284.806 152.397 284.806 152.695C284.806 152.992 284.857 153.284 284.957 153.57C285.061 153.853 285.203 154.109 285.383 154.337C285.564 154.561 285.77 154.74 286.001 154.873ZM288.154 154.627C288.154 154.233 288.232 153.925 288.39 153.703C288.55 153.483 288.766 153.364 289.037 153.347C289.311 153.328 289.61 153.412 289.935 153.599C290.306 153.814 290.635 154.11 290.923 154.488C291.214 154.865 291.425 155.284 291.555 155.746L290.868 155.349C290.778 155.084 290.652 154.853 290.492 154.656C290.331 154.459 290.145 154.3 289.935 154.178C289.704 154.045 289.498 153.986 289.318 154.002C289.137 154.017 288.995 154.107 288.891 154.271C288.791 154.437 288.741 154.669 288.741 154.966C288.741 155.264 288.791 155.553 288.891 155.835C288.995 156.119 289.137 156.375 289.318 156.603C289.498 156.827 289.704 157.006 289.935 157.139C290.146 157.261 290.331 157.316 290.492 157.304C290.652 157.292 290.778 157.206 290.868 157.046L291.555 157.443C291.425 157.754 291.214 157.93 290.923 157.97C290.636 158.013 290.306 157.927 289.935 157.712C289.607 157.523 289.308 157.263 289.037 156.933C288.766 156.599 288.55 156.229 288.39 155.824C288.232 155.42 288.154 155.021 288.154 154.627Z" fill="black"/>
<rect width="36.0472" height="15.4488" rx="7.7244" transform="matrix(0.86601 0.500028 3.18566e-05 1 303.023 155.052)" fill="#8A5CFF"/>
<path d="M316.403 172.172L314.943 171.329L314.693 172.007L314.095 171.662L315.345 168.351L316.007 168.734L317.256 173.487L316.654 173.14L316.403 172.172ZM316.243 171.541L315.676 169.342L315.104 170.883L316.243 171.541ZM320.238 172.382C320.238 172.586 320.196 172.755 320.112 172.889C320.029 173.022 319.895 173.093 319.711 173.103C319.527 173.109 319.291 173.029 319.003 172.862L318.371 172.497L318.371 174.131L317.799 173.801L317.799 169.775L319.003 170.47C319.271 170.624 319.497 170.809 319.681 171.023C319.868 171.236 320.007 171.459 320.097 171.692C320.191 171.928 320.238 172.158 320.238 172.382ZM319.003 172.324C319.221 172.449 319.383 172.487 319.49 172.437C319.597 172.383 319.651 172.251 319.651 172.043C319.651 171.602 319.435 171.258 319.003 171.009L318.371 170.644L318.371 171.959L319.003 172.324ZM323.221 174.104C323.221 174.309 323.18 174.478 323.096 174.611C323.012 174.745 322.879 174.816 322.695 174.826C322.511 174.831 322.275 174.751 321.987 174.585L321.355 174.22L321.355 175.854L320.783 175.524L320.783 171.497L321.987 172.193C322.255 172.347 322.481 172.532 322.664 172.746C322.852 172.958 322.991 173.181 323.081 173.415C323.175 173.651 323.221 173.88 323.221 174.104ZM321.987 174.046C322.205 174.172 322.367 174.21 322.474 174.159C322.581 174.105 322.634 173.974 322.634 173.766C322.634 173.325 322.419 172.981 321.987 172.731L321.355 172.366L321.355 173.681L321.987 174.046Z" fill="white"/>
<rect width="15.4298" height="16.4361" rx="7.71492" transform="matrix(0.86601 0.500028 3.18907e-05 1 138.656 61.1831)" fill="#8A5CFF"/>
<path d="M161.712 78.5374L161.712 79.7676L158.969 78.1834L158.969 80.1322L161.071 81.3462L161.071 82.5547L158.969 81.3407L158.969 84.5525L157.649 83.7903L157.649 76.191L161.712 78.5374ZM168.277 89.9271L166.957 89.165L163.968 82.2242L163.969 87.4392L162.649 86.6771L162.648 79.0669L163.968 79.8291L166.957 86.7806L166.957 81.5548L168.277 82.3169L168.277 89.9271ZM171.854 92.0685C171.395 91.8035 170.98 91.4733 170.61 91.0777C170.245 90.6857 169.956 90.2575 169.742 89.793C169.528 89.3284 169.418 88.8621 169.412 88.3939L170.826 89.2105C170.845 89.5335 170.939 89.8347 171.109 90.1142C171.285 90.3973 171.524 90.6259 171.826 90.8001C172.134 90.9779 172.376 91.0342 172.552 90.9689C172.728 90.8963 172.816 90.7221 172.816 90.4463C172.816 90.2213 172.756 90.0017 172.637 89.7876C172.517 89.5735 172.366 89.3739 172.184 89.1888C172.008 89.0001 171.763 88.7642 171.449 88.4811C171.021 88.0892 170.672 87.7462 170.402 87.4522C170.138 87.1546 169.909 86.8081 169.714 86.4125C169.525 86.0133 169.431 85.5742 169.431 85.0951C169.431 84.6451 169.528 84.3094 169.723 84.0881C169.918 83.8667 170.191 83.7705 170.543 83.7996C170.895 83.8214 171.298 83.9629 171.75 84.2242C172.429 84.6162 172.979 85.1261 173.4 85.7539C173.828 86.3781 174.063 87.0441 174.107 87.7518L172.655 86.9134C172.643 86.6448 172.545 86.3745 172.363 86.1023C172.187 85.8265 171.951 85.6033 171.656 85.4327C171.398 85.2839 171.191 85.2403 171.034 85.302C170.883 85.3673 170.807 85.5452 170.807 85.8355C170.807 86.0387 170.864 86.242 170.977 86.4452C171.097 86.6448 171.241 86.8371 171.411 87.0222C171.587 87.2037 171.832 87.4396 172.146 87.7299C172.574 88.1219 172.923 88.4685 173.193 88.7697C173.463 89.0709 173.696 89.4229 173.891 89.8258C174.085 90.2286 174.183 90.6659 174.183 91.1377C174.183 91.5441 174.092 91.8689 173.909 92.1121C173.727 92.3552 173.46 92.4804 173.108 92.4877C172.756 92.4877 172.338 92.3479 171.854 92.0685Z" fill="black"/>
<rect x="0.866041" y="1.50003" width="149.605" height="84.8636" rx="3.71271" transform="matrix(0.86601 0.500028 3.18907e-05 1 34.116 121.71)" fill="#8A5CFF" stroke="black" stroke-width="2" stroke-linejoin="round"/>
<path d="M49.2668 166.119L47.7741 162.263L46.9625 161.794L46.9626 164.789L45.8992 164.175L45.8989 156.688L48.1378 157.981C48.6353 158.268 49.0551 158.611 49.3972 159.01C49.7454 159.412 50.0035 159.83 50.1715 160.265C50.3456 160.703 50.4327 161.13 50.4327 161.547C50.4327 162.035 50.3083 162.408 50.0596 162.667C49.8171 162.922 49.4408 162.974 48.9309 162.823L50.5355 166.852L49.2668 166.119ZM46.9625 160.814L48.1379 161.493C48.5359 161.723 48.8344 161.78 49.0334 161.665C49.2387 161.554 49.3413 161.304 49.3413 160.916C49.3412 160.529 49.2417 160.17 49.0427 159.839C48.8437 159.502 48.5421 159.216 48.1378 158.983L46.9624 158.304L46.9625 160.814ZM56.5041 167.185C56.5041 167.408 56.4917 167.602 56.4668 167.767L52.5395 165.499C52.5706 165.991 52.723 166.46 52.9966 166.905C53.2703 167.35 53.6061 167.688 54.0041 167.917C54.5763 168.248 54.9805 168.205 55.2168 167.788L56.3643 168.451C56.2088 168.907 55.9258 169.192 55.5154 169.307C55.1112 169.418 54.6074 169.3 54.0042 168.952C53.5129 168.668 53.0713 168.287 52.6795 167.81C52.2939 167.329 51.9892 166.794 51.7653 166.205C51.5476 165.612 51.4387 165.011 51.4387 164.4C51.4387 163.79 51.5444 163.316 51.7558 162.978C51.9735 162.637 52.2751 162.452 52.6607 162.424C53.0525 162.399 53.5002 162.531 54.004 162.822C54.4891 163.102 54.9213 163.474 55.3007 163.937C55.68 164.4 55.9755 164.916 56.1869 165.483C56.3984 166.043 56.5041 166.611 56.5041 167.185ZM55.394 166.156C55.3878 165.7 55.2478 165.257 54.9742 164.826C54.7006 164.395 54.3616 164.063 53.9574 163.83C53.5905 163.618 53.2764 163.573 53.0152 163.695C52.754 163.81 52.5985 164.083 52.5488 164.513L55.394 166.156ZM64.4537 168.953L62.8587 173.967L61.7393 173.321L60.7037 168.339L59.6684 172.125L58.5489 171.479L56.9442 164.617L58.0264 165.242L59.0993 170.633L60.1906 166.491L61.3007 167.132L62.3456 172.486L63.4089 168.35L64.4537 168.953ZM64.8941 172.148C64.8941 171.552 64.9998 171.085 65.2112 170.747C65.4289 170.414 65.7212 170.227 66.0881 170.187C66.4612 170.144 66.8717 170.252 67.3194 170.511C67.7237 170.744 68.075 171.04 68.3736 171.399C68.6783 171.755 68.9209 172.121 69.1012 172.498L69.1012 171.636L70.174 172.256L70.1742 178.191L69.1014 177.572L69.1013 176.688C68.921 176.864 68.6754 176.956 68.3644 176.963C68.0535 176.97 67.699 176.859 67.301 176.629C66.8594 176.374 66.4552 176.011 66.0882 175.541C65.7213 175.063 65.429 174.528 65.2113 173.936C64.9999 173.34 64.8941 172.744 64.8941 172.148ZM69.1013 174.599C69.1013 174.189 69.0266 173.791 68.8774 173.403C68.7343 173.019 68.5446 172.679 68.3083 172.385C68.072 172.09 67.817 171.864 67.5433 171.706C67.2697 171.548 67.0147 171.48 66.7784 171.502C66.5421 171.516 66.3493 171.631 66.2001 171.846C66.057 172.058 65.9855 172.369 65.9855 172.778C65.9856 173.187 66.0571 173.588 66.2001 173.979C66.3494 174.374 66.5422 174.722 66.7785 175.024C67.0211 175.322 67.2761 175.548 67.5435 175.703C67.8171 175.861 68.0721 175.929 68.3084 175.907C68.5447 175.886 68.7344 175.766 68.8774 175.546C69.0267 175.324 69.1013 175.008 69.1013 174.599ZM72.6343 174.538C72.7897 174.326 72.995 174.211 73.2499 174.193C73.5111 174.172 73.819 174.263 74.1734 174.468L74.1735 175.739L73.903 175.583C73.4863 175.342 73.1691 175.281 72.9515 175.4C72.74 175.522 72.6343 175.885 72.6343 176.488L72.6344 179.612L71.571 178.998L71.5708 173.062L72.6342 173.676L72.6343 174.538ZM74.7966 177.865C74.7966 177.269 74.9023 176.803 75.1137 176.465C75.3314 176.131 75.6237 175.945 75.9906 175.905C76.3637 175.862 76.7773 175.971 77.2313 176.234C77.5671 176.428 77.8967 176.704 78.2201 177.063C78.5497 177.419 78.8109 177.792 79.0037 178.183L79.0036 175.318L80.0764 175.937L80.0767 183.909L79.0039 183.289L79.0038 182.395C78.8297 182.582 78.5872 182.679 78.2762 182.686C77.9715 182.697 77.6201 182.587 77.2221 182.357C76.7743 182.099 76.3639 181.733 75.9907 181.259C75.6238 180.781 75.3315 180.246 75.1138 179.654C74.9024 179.058 74.7966 178.462 74.7966 177.865ZM79.0038 180.316C79.0038 179.907 78.9291 179.508 78.7799 179.121C78.6368 178.736 78.4471 178.397 78.2108 178.103C77.9745 177.808 77.7195 177.582 77.4458 177.424C77.1722 177.266 76.9172 177.198 76.6809 177.219C76.4446 177.234 76.2518 177.348 76.1026 177.564C75.9595 177.776 75.888 178.086 75.888 178.496C75.888 178.905 75.9596 179.305 76.1026 179.697C76.2519 180.092 76.4447 180.44 76.681 180.742C76.9236 181.04 77.1786 181.266 77.446 181.42C77.7196 181.578 77.9746 181.647 78.2109 181.625C78.4472 181.603 78.6369 181.483 78.7799 181.264C78.9292 181.042 79.0038 180.726 79.0038 180.316Z" fill="white"/>
<path d="M45.1203 178.009L45.1202 174.798L49.9652 177.595L49.9657 192.34L46.8523 190.542L46.8519 179.009L45.1203 178.009ZM54.1104 186.815C53.0143 185.509 52.4662 184.136 52.4662 182.695C52.4662 181.968 52.6294 181.403 52.9559 180.999C53.2823 180.581 53.7779 180.389 54.4426 180.423C55.1072 180.443 55.9235 180.733 56.8913 181.292C57.8591 181.85 58.6696 182.5 59.3226 183.241C59.9872 183.975 60.4828 184.739 60.8094 185.533C61.1359 186.314 61.2991 187.068 61.2992 187.795C61.2992 188.522 61.1476 189.068 60.8445 189.431C60.553 189.802 60.1565 189.997 59.6551 190.017C60.2848 190.731 60.7687 191.495 61.1069 192.309C61.4451 193.111 61.6142 193.922 61.6142 194.743C61.6143 195.699 61.4044 196.406 60.9846 196.864C60.5649 197.308 59.9935 197.503 59.2705 197.45C58.5593 197.402 57.7663 197.126 56.8918 196.621C56.0172 196.116 55.2185 195.473 54.4955 194.692C53.7842 193.918 53.2186 193.067 52.7988 192.137C52.379 191.195 52.1691 190.246 52.169 189.29C52.169 188.455 52.3381 187.832 52.6762 187.421C53.0144 186.997 53.4924 186.795 54.1104 186.815ZM58.3957 186.644C58.3956 186.092 58.2557 185.587 57.9758 185.129C57.7076 184.665 57.3461 184.301 56.8914 184.038C56.4366 183.776 56.0693 183.719 55.7895 183.867C55.5213 184.022 55.3872 184.375 55.3872 184.927C55.3872 185.452 55.5272 185.95 55.807 186.422C56.0869 186.879 56.4484 187.236 56.8915 187.492C57.3346 187.748 57.6961 187.802 57.9759 187.654C58.2558 187.506 58.3957 187.169 58.3957 186.644ZM56.8916 189.916C56.3435 189.599 55.9004 189.519 55.5623 189.673C55.2241 189.815 55.055 190.188 55.0551 190.794C55.0551 191.36 55.2183 191.919 55.5449 192.471C55.883 193.03 56.332 193.471 56.8917 193.794C57.4514 194.117 57.8887 194.188 58.2035 194.006C58.53 193.831 58.6932 193.461 58.6932 192.895C58.6932 192.303 58.5241 191.734 58.1859 191.188C57.8594 190.65 57.428 190.226 56.8916 189.916ZM63.2486 197.242C63.645 197.107 63.8258 197.043 63.7908 197.05C64.9335 196.619 65.8314 196.242 66.4843 195.919C67.149 195.603 67.7087 195.192 68.1634 194.687C68.6182 194.182 68.8455 193.566 68.8455 192.839C68.8455 192.287 68.7347 191.792 68.5131 191.355C68.2916 190.917 67.9592 190.57 67.5161 190.314C67.073 190.059 66.7232 190.052 66.4667 190.294C66.2218 190.53 66.0994 190.998 66.0994 191.698L63.2134 190.032C63.2367 188.9 63.4465 188.066 63.843 187.527C64.2511 186.995 64.7816 186.736 65.4346 186.75C66.0993 186.77 66.8339 187.012 67.6385 187.477C69.0261 188.278 70.0697 189.291 70.7694 190.517C71.4807 191.749 71.8364 193.024 71.8365 194.344C71.8365 195.785 71.4109 196.879 70.5597 197.626C69.7085 198.36 68.6241 198.932 67.3065 199.343L72.0291 202.069L72.0292 204.877L63.2487 199.807L63.2486 197.242ZM73.4507 195.316C73.4973 193.903 73.9054 193.027 74.675 192.691C75.4445 192.354 76.4882 192.566 77.8058 193.327C78.6804 193.832 79.4267 194.438 80.0447 195.145C80.6744 195.859 81.1467 196.609 81.4615 197.397C81.788 198.191 81.9513 198.966 81.9513 199.72C81.9514 200.608 81.759 201.224 81.3742 201.568C80.9894 201.898 80.5405 202.015 80.0274 201.921L80.0274 202.002C80.6921 202.642 81.2168 203.369 81.6017 204.183C81.9865 204.998 82.1789 205.87 82.1789 206.799C82.179 207.634 82.0099 208.277 81.6718 208.728C81.3453 209.172 80.8614 209.391 80.2201 209.384C79.5904 209.384 78.8383 209.132 77.9637 208.627C76.5644 207.819 75.445 206.775 74.6054 205.496C73.7775 204.223 73.3402 202.773 73.2935 201.143L76.197 202.82C76.2087 203.419 76.3544 203.974 76.6343 204.486C76.9142 204.984 77.3223 205.388 77.8587 205.698C78.3135 205.961 78.6633 206.014 78.9081 205.86C79.1647 205.698 79.2929 205.368 79.2929 204.87C79.2929 204.224 79.1121 203.655 78.7506 203.163C78.4008 202.665 77.8353 202.19 77.054 201.739L76.4943 201.416L76.4942 198.609L77.0539 198.932C77.6486 199.275 78.1267 199.437 78.4882 199.417C78.8613 199.39 79.0479 199.073 79.0478 198.467C79.0478 197.983 78.9312 197.538 78.698 197.134C78.4648 196.73 78.1441 196.411 77.736 196.175C77.2928 195.919 76.9605 195.882 76.739 196.064C76.5291 196.252 76.4067 196.565 76.3717 197.003L73.4507 195.316ZM85.633 213.095C85.1083 212.792 84.6768 212.368 84.3387 211.823C84.0122 211.271 83.8489 210.732 83.8489 210.207C83.8489 209.668 84.0121 209.311 84.3386 209.136C84.6767 208.968 85.1082 209.035 85.6329 209.338C86.146 209.635 86.5658 210.059 86.8923 210.611C87.2304 211.17 87.3995 211.718 87.3996 212.257C87.3996 212.782 87.2305 213.129 86.8924 213.297C86.5659 213.459 86.1461 213.391 85.633 213.095ZM95.1868 207.685C95.0935 207.133 94.9302 206.668 94.697 206.291C94.4638 205.901 94.1314 205.581 93.7 205.332C93.0353 204.948 92.5572 205.009 92.2657 205.514C91.9742 206.005 91.8227 206.968 91.8111 208.402C92.0676 208.079 92.4349 207.92 92.913 207.927C93.4027 207.941 93.9391 208.116 94.5221 208.452C95.6649 209.112 96.5803 210.058 97.2683 211.29C97.9679 212.529 98.3178 213.896 98.3179 215.39C98.3179 216.373 98.143 217.134 97.7932 217.673C97.4551 218.218 96.9537 218.507 96.289 218.541C95.636 218.581 94.8606 218.342 93.9627 217.824C92.167 216.787 90.9193 215.42 90.2196 213.724C89.5199 212.014 89.17 209.94 89.1699 207.503C89.1699 204.945 89.5371 203.258 90.2717 202.444C91.0179 201.622 92.2073 201.683 93.8398 202.625C94.7144 203.13 95.449 203.756 96.0437 204.504C96.6501 205.244 97.1049 206.025 97.4081 206.847C97.7229 207.675 97.9095 208.489 97.9678 209.291L95.1868 207.685ZM93.8051 210.765C93.3037 210.475 92.8839 210.408 92.5457 210.563C92.2193 210.711 92.056 211.101 92.056 211.734C92.0561 212.381 92.2077 212.973 92.5109 213.512C92.8257 214.057 93.2688 214.495 93.8402 214.825C94.3533 215.121 94.7556 215.178 95.0471 214.996C95.3502 214.808 95.5018 214.404 95.5018 213.784C95.5018 213.152 95.356 212.569 95.0645 212.037C94.7729 211.506 94.3531 211.081 93.8051 210.765ZM106.324 214.115C106.23 213.563 106.067 213.099 105.834 212.722C105.601 212.331 105.268 212.011 104.837 211.762C104.172 211.378 103.694 211.439 103.403 211.944C103.111 212.435 102.96 213.398 102.948 214.832C103.204 214.509 103.572 214.351 104.05 214.358C104.54 214.371 105.076 214.546 105.659 214.883C106.802 215.543 107.717 216.488 108.405 217.721C109.105 218.959 109.455 220.326 109.455 221.821C109.455 222.804 109.28 223.564 108.93 224.103C108.592 224.648 108.091 224.938 107.426 224.971C106.773 225.012 105.997 224.773 105.1 224.254C103.304 223.217 102.056 221.851 101.356 220.154C100.657 218.444 100.307 216.37 100.307 213.933C100.307 211.375 100.674 209.688 101.409 208.874C102.155 208.053 103.344 208.113 104.977 209.056C105.851 209.561 106.586 210.187 107.181 210.934C107.787 211.675 108.242 212.456 108.545 213.277C108.86 214.105 109.046 214.92 109.105 215.721L106.324 214.115ZM104.942 217.195C104.441 216.906 104.021 216.838 103.683 216.993C103.356 217.141 103.193 217.532 103.193 218.165C103.193 218.811 103.345 219.403 103.648 219.942C103.963 220.487 104.406 220.925 104.977 221.255C105.49 221.551 105.892 221.608 106.184 221.427C106.487 221.238 106.639 220.834 106.639 220.215C106.639 219.582 106.493 219 106.201 218.468C105.91 217.936 105.49 217.512 104.942 217.195ZM123.144 220.414L123.144 223.181L118.141 220.292L118.141 223.281L121.884 225.443L121.884 228.129L118.141 225.968L118.142 231.704L115.151 229.977L115.15 215.798L123.144 220.414ZM130.978 239.115L128.424 232.289L127.707 231.874L127.707 237.227L124.716 235.5L124.716 221.321L129.735 224.22C130.703 224.779 131.525 225.448 132.202 226.229C132.89 227.017 133.403 227.852 133.741 228.734C134.079 229.602 134.248 230.454 134.248 231.289C134.248 232.232 134.015 232.938 133.549 233.41C133.094 233.888 132.418 234.022 131.52 233.814L134.354 241.064L130.978 239.115ZM127.707 229.431L129.561 230.501C130.109 230.818 130.517 230.898 130.785 230.744C131.065 230.595 131.205 230.239 131.205 229.673C131.205 229.134 131.065 228.63 130.785 228.158C130.517 227.694 130.109 227.303 129.561 226.987L127.707 225.916L127.707 229.431ZM143.77 243.997L139.187 241.351L138.452 243.431L135.322 241.623L139.764 230.01L143.227 232.01L147.67 248.753L144.504 246.925L143.77 243.997ZM143 240.886L141.478 234.817L139.974 239.139L143 240.886Z" fill="white"/>
<circle r="41.4309" transform="matrix(0.86601 0.500028 3.18907e-05 1 370.987 95.7915)" fill="white" stroke="black" stroke-width="2"/>
<mask id="mask1_117_2749" style="mask-type:alpha" maskUnits="userSpaceOnUse" x="334" y="48" width="74" height="96">
<circle r="42.0996" transform="matrix(0.86601 0.500028 3.18907e-05 1 370.987 95.7915)" fill="white" stroke="black" stroke-width="0.662448"/>
</mask>
<g mask="url(#mask1_117_2749)">
<path d="M396.58 151.806C396.3 152.019 395.952 152.119 395.562 152.099C395.172 152.079 394.748 151.941 394.32 151.693L345.562 123.541C345.134 123.294 344.712 122.944 344.323 122.515C343.934 122.086 343.587 121.587 343.307 121.053C343.026 120.518 342.818 119.96 342.697 119.417C342.576 118.873 342.544 118.357 342.604 117.903C342.835 116.175 343.326 114.884 344.104 113.958C344.811 113.116 345.738 112.601 346.937 112.382C349.071 111.991 351.77 112.61 354.627 113.265C355.771 113.528 356.955 113.8 358.137 114.014C360.602 114.463 361.98 113.29 362.341 110.434L361.96 109.885C360.236 107.402 359.078 104.533 358.728 101.878L358.556 100.585C357.985 100.07 357.388 99.2957 356.881 98.1296C356.398 97.0181 356.118 95.8266 355.872 94.7759C355.768 94.33 355.669 93.9091 355.569 93.5535C355.034 91.6655 354.702 89.5953 354.702 88.1533C354.702 86.6905 355.239 86.1482 355.689 85.9512C356.008 85.8134 356.385 85.797 356.794 85.9031L356.793 76.8005C356.792 75.8985 356.983 75.1207 357.348 74.5354C357.714 73.9501 358.243 73.5754 358.89 73.444C360.878 72.6791 364.3 73.1322 369.064 74.7924C372.639 76.0375 376.068 77.6774 377.109 78.2786C377.345 78.415 377.577 78.6294 377.773 78.8945C377.97 79.1596 378.123 79.4636 378.213 79.768C378.304 80.0725 378.328 80.3636 378.281 80.6047C378.235 80.8458 378.121 81.026 377.954 81.1224C377.436 81.4217 376.919 81.7734 376.505 82.097L379.298 84.3947C380.369 85.2763 381.33 86.5108 382.019 87.8917C382.709 89.2727 383.085 90.7163 383.085 91.981L383.085 101.084C383.493 101.449 383.871 101.901 384.189 102.407C384.64 103.124 385.176 104.286 385.177 105.749C385.177 107.191 384.845 108.878 384.311 110.149C384.21 110.389 384.112 110.696 384.007 111.021C383.761 111.787 383.481 112.658 382.999 113.21C382.492 113.79 381.895 113.876 381.324 113.732L381.152 114.826C380.802 117.076 379.644 118.607 377.92 119.1L377.539 119.209C377.9 122.482 379.28 125.247 381.743 127.644C382.927 128.796 384.11 129.891 385.254 130.949C388.111 133.593 390.809 136.09 392.943 138.945C394.143 140.55 395.07 142.136 395.777 143.794C396.556 145.619 397.047 147.476 397.278 149.471C397.338 149.994 397.307 150.472 397.187 150.875C397.066 151.278 396.86 151.596 396.58 151.806Z" fill="#8A5CFF"/>
</g>
<circle r="41.4309" transform="matrix(0.86601 0.500028 3.18907e-05 1 370.747 95.7915)" stroke="black" stroke-width="2"/>
<ellipse cx="99.8872" cy="449.498" rx="37.3169" ry="21.483" fill="black" stroke="black" stroke-width="2.17136" stroke-miterlimit="10"/>
<path d="M61.0781 437.467L137.884 436.66L138.287 449.244L61.4916 450.247L61.0781 437.467Z" fill="black"/>
<ellipse cx="99.4673" cy="436.839" rx="37.3169" ry="21.483" fill="white" stroke="black" stroke-width="2.17136" stroke-miterlimit="10"/>
<ellipse cx="99.4676" cy="436.839" rx="30.2098" ry="16.2512" fill="white" stroke="black" stroke-width="2.33415" stroke-miterlimit="10"/>
<path fill-rule="evenodd" clip-rule="evenodd" d="M100.406 427.721C100.286 427.837 100.352 427.983 100.566 428.045L117.488 433.682C117.888 433.821 118.315 433.528 118.008 433.32L104.679 424.099C104.492 423.975 104.145 423.991 104.012 424.13L100.406 427.721ZM92.9948 433.54L98.3234 428.215L99.0179 427.521L101.849 424.685C102.063 424.469 101.663 424.238 101.289 424.361L83.6 430.259C83.333 430.352 83.3195 430.575 83.5997 430.676L92.4475 433.625C92.621 433.694 92.8746 433.656 92.9948 433.54ZM119.982 435.431C120.503 435.608 120.769 435.978 120.609 436.317L118.043 441.819C117.977 441.966 117.683 442.043 117.443 441.966L94.369 434.257C94.1554 434.195 94.0888 434.049 94.209 433.933L99.3239 428.823C99.4308 428.7 99.6844 428.661 99.8846 428.731L119.982 435.431ZM91.8863 434.642C92.0065 434.527 91.9398 434.38 91.7263 434.319L82.8785 431.369C82.6116 431.277 82.2511 431.392 82.2644 431.57L82.1777 443.452C82.1776 443.698 82.7248 443.783 82.9518 443.575L91.8863 434.642ZM93.6481 434.95L115.681 442.29C116.028 442.413 115.921 442.706 115.52 442.737L84.0324 444.846C83.6987 444.869 83.4719 444.661 83.6321 444.492L93.0875 435.043C93.1943 434.92 93.4479 434.881 93.6481 434.95Z" fill="black"/>
<ellipse cx="114.192" cy="434.344" rx="37.3169" ry="21.483" fill="black" stroke="black" stroke-width="2.17136" stroke-miterlimit="10"/>
<path d="M75.3828 422.314L152.188 421.506L152.591 434.091L75.7963 435.093L75.3828 422.314Z" fill="black"/>
<ellipse cx="113.772" cy="421.685" rx="37.3169" ry="21.483" fill="white" stroke="black" stroke-width="2.17136" stroke-miterlimit="10"/>
<ellipse cx="113.772" cy="421.685" rx="30.2098" ry="16.2512" fill="white" stroke="black" stroke-width="2.33415" stroke-miterlimit="10"/>
<path fill-rule="evenodd" clip-rule="evenodd" d="M114.711 412.568C114.59 412.683 114.657 412.83 114.871 412.891L131.792 418.529C132.193 418.667 132.62 418.374 132.313 418.166L118.984 408.945C118.797 408.822 118.45 408.837 118.317 408.976L114.711 412.568ZM107.299 418.387L112.628 413.061L113.323 412.368L116.154 409.531C116.368 409.316 115.967 409.085 115.593 409.208L97.9047 415.106C97.6377 415.198 97.6242 415.422 97.9044 415.522L106.752 418.472C106.926 418.541 107.179 418.502 107.299 418.387ZM134.287 420.277C134.807 420.454 135.074 420.824 134.914 421.163L132.348 426.666C132.281 426.812 131.988 426.889 131.747 426.812L108.674 419.103C108.46 419.041 108.393 418.895 108.514 418.779L113.629 413.67C113.735 413.546 113.989 413.508 114.189 413.577L134.287 420.277ZM106.191 419.489C106.311 419.373 106.244 419.227 106.031 419.165L97.1832 416.216C96.9163 416.123 96.5558 416.239 96.5691 416.416L96.4824 428.298C96.4823 428.545 97.0295 428.629 97.2565 428.421L106.191 419.489ZM107.953 419.797L129.985 427.136C130.332 427.26 130.226 427.552 129.825 427.583L98.3371 429.693C98.0034 429.716 97.7766 429.508 97.9368 429.338L107.392 419.89C107.499 419.766 107.753 419.728 107.953 419.797Z" fill="black"/>
<ellipse cx="94.0243" cy="295.517" rx="34.3719" ry="19.7876" fill="black" stroke="black" stroke-width="2" stroke-miterlimit="10"/>
<path d="M58.2793 284.436L129.023 283.693L129.395 295.284L58.6601 296.207L58.2793 284.436Z" fill="black"/>
<ellipse cx="93.6395" cy="283.857" rx="34.3719" ry="19.7876" fill="white" stroke="black" stroke-width="2" stroke-miterlimit="10"/>
<ellipse cx="93.6401" cy="283.857" rx="27.8257" ry="14.9687" fill="white" stroke="black" stroke-width="2.14994" stroke-miterlimit="10"/>
<path fill-rule="evenodd" clip-rule="evenodd" d="M94.5037 275.459C94.393 275.566 94.4544 275.7 94.6511 275.757L110.237 280.95C110.606 281.077 111 280.808 110.717 280.616L98.4397 272.122C98.2676 272.009 97.948 272.023 97.825 272.151L94.5037 275.459ZM87.6774 280.819L92.5855 275.914L93.2252 275.275L95.833 272.662C96.0298 272.464 95.6611 272.251 95.3168 272.364L79.024 277.797C78.778 277.882 78.7656 278.088 79.0238 278.18L87.1733 280.897C87.3331 280.961 87.5667 280.925 87.6774 280.819ZM112.535 282.56C113.014 282.723 113.26 283.064 113.112 283.376L110.749 288.444C110.688 288.579 110.417 288.65 110.196 288.579L88.9432 281.479C88.7465 281.422 88.6851 281.287 88.7958 281.181L93.5071 276.474C93.6055 276.36 93.8391 276.325 94.0235 276.389L112.535 282.56ZM86.6564 281.834C86.7671 281.727 86.7057 281.593 86.509 281.536L78.3595 278.819C78.1137 278.734 77.7817 278.84 77.7939 279.004L77.714 289.948C77.7139 290.175 78.2179 290.253 78.427 290.062L86.6564 281.834ZM88.2792 282.118L108.573 288.878C108.893 288.991 108.794 289.261 108.425 289.29L79.4223 291.233C79.1149 291.254 78.906 291.062 79.0536 290.906L87.7628 282.203C87.8612 282.09 88.0948 282.054 88.2792 282.118Z" fill="black"/>
<ellipse cx="367.62" cy="411.862" rx="34.3719" ry="19.7876" fill="black" stroke="black" stroke-width="2" stroke-miterlimit="10"/>
<path d="M331.875 400.781L402.619 400.038L402.99 411.629L332.256 412.552L331.875 400.781Z" fill="black"/>
<ellipse cx="367.235" cy="400.202" rx="34.3719" ry="19.7876" fill="white" stroke="black" stroke-width="2" stroke-miterlimit="10"/>
<ellipse cx="367.236" cy="400.202" rx="27.8257" ry="14.9687" fill="white" stroke="black" stroke-width="2.14994" stroke-miterlimit="10"/>
<path fill-rule="evenodd" clip-rule="evenodd" d="M368.099 391.804C367.989 391.911 368.05 392.046 368.247 392.102L383.833 397.295C384.202 397.423 384.595 397.153 384.313 396.961L372.035 388.468C371.863 388.354 371.544 388.368 371.421 388.496L368.099 391.804ZM361.273 397.164L366.181 392.259L366.821 391.62L369.429 389.008C369.625 388.809 369.257 388.596 368.912 388.71L352.62 394.142C352.374 394.227 352.361 394.433 352.619 394.526L360.769 397.242C360.929 397.306 361.162 397.271 361.273 397.164ZM386.131 398.905C386.61 399.069 386.856 399.409 386.708 399.722L384.345 404.79C384.283 404.924 384.013 404.996 383.792 404.925L362.539 397.824C362.342 397.767 362.281 397.632 362.392 397.526L367.103 392.819C367.201 392.706 367.435 392.67 367.619 392.734L386.131 398.905ZM360.252 398.179C360.363 398.073 360.301 397.938 360.105 397.881L351.955 395.164C351.709 395.079 351.377 395.186 351.39 395.349L351.31 406.293C351.31 406.52 351.814 406.598 352.023 406.407L360.252 398.179ZM361.875 398.463L382.169 405.223C382.488 405.337 382.39 405.606 382.021 405.635L353.018 407.578C352.711 407.599 352.502 407.408 352.649 407.251L361.358 398.548C361.457 398.435 361.69 398.399 361.875 398.463Z" fill="black"/>
<ellipse cx="408.324" cy="295.627" rx="30.4158" ry="17.5101" fill="black" stroke="black" stroke-width="1.7698" stroke-miterlimit="10"/>
<path d="M376.693 285.822L439.295 285.164L439.623 295.421L377.03 296.238L376.693 285.822Z" fill="black"/>
<ellipse cx="407.984" cy="285.309" rx="30.4158" ry="17.5101" fill="white" stroke="black" stroke-width="1.7698" stroke-miterlimit="10"/>
<ellipse cx="407.984" cy="285.309" rx="24.623" ry="13.2458" fill="white" stroke="black" stroke-width="1.90249" stroke-miterlimit="10"/>
<path fill-rule="evenodd" clip-rule="evenodd" d="M408.748 277.878C408.65 277.972 408.704 278.091 408.878 278.141L422.67 282.736C422.997 282.849 423.345 282.611 423.095 282.441L412.231 274.925C412.079 274.825 411.796 274.837 411.687 274.95L408.748 277.878ZM402.707 282.621L407.05 278.28L407.616 277.715L409.924 275.403C410.098 275.227 409.772 275.039 409.467 275.139L395.05 279.947C394.832 280.022 394.821 280.204 395.05 280.286L402.261 282.69C402.403 282.746 402.609 282.715 402.707 282.621ZM424.704 284.162C425.128 284.306 425.346 284.607 425.215 284.884L423.124 289.368C423.069 289.488 422.83 289.551 422.634 289.488L403.827 283.204C403.653 283.154 403.599 283.035 403.697 282.941L407.866 278.776C407.953 278.675 408.16 278.644 408.323 278.7L424.704 284.162ZM401.804 283.519C401.902 283.425 401.847 283.305 401.673 283.255L394.462 280.851C394.244 280.776 393.951 280.87 393.961 281.014L393.891 290.699C393.891 290.9 394.337 290.969 394.522 290.8L401.804 283.519ZM403.24 283.77L421.198 289.752C421.481 289.853 421.393 290.091 421.067 290.117L395.402 291.836C395.13 291.855 394.945 291.685 395.076 291.547L402.783 283.846C402.87 283.745 403.077 283.714 403.24 283.77Z" fill="black"/>
<ellipse cx="425.997" cy="300.597" rx="30.4158" ry="17.5101" transform="rotate(17.5208 425.997 300.597)" fill="black" stroke="black" stroke-width="1.7698" stroke-miterlimit="10"/>
<path d="M398.784 281.724L458.68 299.942L455.905 309.822L395.97 291.758L398.784 281.724Z" fill="black"/>
<ellipse cx="428.778" cy="290.655" rx="30.4158" ry="17.5101" transform="rotate(17.5208 428.778 290.655)" fill="white" stroke="black" stroke-width="1.7698" stroke-miterlimit="10"/>
<ellipse cx="428.778" cy="290.655" rx="24.623" ry="13.2458" transform="rotate(17.5208 428.778 290.655)" fill="white" stroke="black" stroke-width="1.90249" stroke-miterlimit="10"/>
<path fill-rule="evenodd" clip-rule="evenodd" d="M431.745 283.799C431.623 283.859 431.639 283.989 431.79 284.09L443.559 292.623C443.836 292.829 444.24 292.707 444.053 292.47L435.955 282.032C435.84 281.89 435.567 281.817 435.429 281.892L431.745 283.799ZM424.557 286.503L430.005 283.671L430.715 283.303L433.612 281.793C433.831 281.678 433.576 281.4 433.256 281.404L418.06 281.648C417.829 281.654 417.764 281.825 417.957 281.971L424.111 286.435C424.228 286.531 424.435 286.563 424.557 286.503ZM445.069 294.595C445.43 294.86 445.547 295.213 445.339 295.437L441.995 299.084C441.907 299.182 441.659 299.17 441.492 299.051L425.449 287.397C425.298 287.297 425.283 287.167 425.404 287.106L430.634 284.39C430.747 284.32 430.954 284.352 431.092 284.455L445.069 294.595ZM423.425 287.088C423.547 287.027 423.531 286.897 423.38 286.797L417.227 282.333C417.042 282.196 416.734 282.197 416.7 282.338L413.717 291.552C413.657 291.744 414.061 291.944 414.289 291.838L423.425 287.088ZM424.719 287.759L440.043 298.87C440.282 299.051 440.127 299.253 439.808 299.178L414.817 293.092C414.552 293.028 414.426 292.81 414.593 292.718L424.26 287.694C424.374 287.624 424.58 287.656 424.719 287.759Z" fill="black"/>
</g>
<defs>
<clipPath id="clip0_117_2749">
<rect width="7.62624" height="7.62624" fill="white" transform="matrix(0.86601 0.500028 3.18506e-05 1 148.254 187.708)"/>
</clipPath>
</defs>
</svg>
