<svg width="120" height="48" viewBox="0 0 120 48" fill="none" xmlns="http://www.w3.org/2000/svg">
<mask id="mask0_254_82" style="mask-type:alpha" maskUnits="userSpaceOnUse" x="0" y="0" width="120" height="48">
<rect width="120" height="48" fill="#D9D9D9"/>
</mask>
<g mask="url(#mask0_254_82)">
<path fill-rule="evenodd" clip-rule="evenodd" d="M22.0425 5.10005C23.6918 5.10005 25.2915 5.31224 26.8159 5.71082C27.5366 5.89924 28.1317 6.39329 28.5064 7.03706C29.7568 9.18548 28.0442 11.8458 25.5709 11.597L16.5429 10.6887L16.1843 10.6531L12.8558 10.3183C12.8546 10.3182 12.8535 10.319 12.8532 10.3201C12.8529 10.3213 12.8518 10.3221 12.8506 10.322L11.9025 10.2278C10.9393 10.1321 10.5723 8.96769 11.369 8.41799C14.4019 6.32543 18.0791 5.10005 22.0425 5.10005ZM34.9741 15.9148L35.749 17.246C36.3904 18.3478 37.94 18.4577 38.7305 17.4575C39.1392 16.9404 39.2405 16.2385 38.9504 15.6467C37.8154 13.3307 36.2185 11.2823 34.2798 9.62131C32.953 8.48458 31.5145 9.96078 32.3933 11.4708L34.9759 15.908C34.9766 15.9092 34.9762 15.9107 34.975 15.9114C34.9743 15.9118 34.9739 15.9125 34.9738 15.9133C34.9737 15.9138 34.9738 15.9143 34.9741 15.9148ZM8.1277 28.4522L8.24945 27.9851L8.33295 27.6611C8.33302 27.6608 8.33328 27.6607 8.33353 27.6607C8.33378 27.6608 8.33404 27.6606 8.3341 27.6604L11.8136 14.3121C12.2085 12.7969 11.157 11.2872 9.59891 11.1324C8.81265 11.0543 8.02618 11.3384 7.52327 11.9478C4.83902 15.2005 3.22656 19.3704 3.22656 23.917C3.22656 26.0926 3.59579 28.182 4.27501 30.1259C4.92367 31.9823 7.3103 31.6298 7.801 29.7255L8.12842 28.4548C8.12854 28.4543 8.1284 28.4538 8.12806 28.4535C8.12771 28.4532 8.12758 28.4527 8.1277 28.4522ZM18.8993 39.1931L12.6592 32.9716C11.0649 31.382 8.34686 32.1265 7.78509 34.3066C7.55136 35.2137 7.75904 36.1885 8.40955 36.8625C13.0997 41.7221 18.6926 42.6637 20.4103 42.6637C21.1723 42.6637 21.542 41.834 21.0029 41.2955L18.8993 39.1942C18.8992 39.1941 18.8991 39.1939 18.8992 39.1938C18.8992 39.1937 18.8991 39.1938 18.8992 39.1938C18.8992 39.1937 18.8994 39.1935 18.8994 39.1934C18.8994 39.1933 18.8993 39.1932 18.8993 39.1931ZM23.0633 39.0964L33.7736 25.5452C33.7737 25.5451 33.7738 25.545 33.7739 25.545C33.774 25.5449 33.7741 25.5449 33.7742 25.5449C33.7743 25.545 33.7741 25.5449 33.7742 25.5449C33.7743 25.545 33.7745 25.5451 33.7746 25.5451C33.7749 25.5453 33.7753 25.5453 33.7755 25.545L36.0276 22.6954C37.68 20.6045 40.8593 21.2519 40.8593 23.917C40.8593 33.322 33.9593 41.1155 24.9453 42.5113C24.3138 42.6091 23.6813 42.3771 23.2292 41.9256C22.464 41.1612 22.3927 39.9449 23.0633 39.0964Z" fill="white"/>
<path d="M70.2819 11.7593V15.7444H60.0193V22.0571H67.8837V25.9717H60.0193V36.3753H55.082V11.7593H70.2819Z" fill="white"/>
<path d="M94.8369 36.3753H89.8996L78.7202 19.4827V36.3753H73.7829V11.7241H78.7202L89.8996 28.6519V11.7241H94.8369V36.3753Z" fill="white"/>
<path d="M108.215 36.6222C106.499 36.6222 104.947 36.3283 103.56 35.7405C102.197 35.1527 101.115 34.3063 100.316 33.2013C99.5163 32.0963 99.1048 30.7914 99.0813 29.2867H104.371C104.442 30.2977 104.794 31.0971 105.429 31.6849C106.088 32.2726 106.981 32.5665 108.11 32.5665C109.262 32.5665 110.167 32.2961 110.825 31.7554C111.483 31.1911 111.812 30.4623 111.812 29.5689C111.812 28.84 111.589 28.2405 111.142 27.7703C110.696 27.3001 110.131 26.9356 109.45 26.677C108.791 26.3949 107.874 26.0892 106.699 25.7601C105.1 25.2899 103.795 24.8314 102.784 24.3847C101.797 23.9145 100.939 23.2209 100.21 22.304C99.5045 21.3635 99.1518 20.1175 99.1518 18.5657C99.1518 17.1081 99.5163 15.8385 100.245 14.757C100.974 13.6755 101.997 12.8526 103.313 12.2883C104.63 11.7005 106.135 11.4067 107.827 11.4067C110.367 11.4067 112.424 12.0297 113.999 13.2758C115.598 14.4983 116.479 16.2146 116.644 18.4247H111.213C111.166 17.5783 110.802 16.8847 110.12 16.344C109.461 15.7797 108.58 15.4976 107.475 15.4976C106.511 15.4976 105.735 15.7444 105.147 16.2382C104.583 16.7319 104.301 17.449 104.301 18.3894C104.301 19.0477 104.512 19.6002 104.936 20.0469C105.382 20.4701 105.923 20.8228 106.558 21.1049C107.216 21.3635 108.133 21.6692 109.309 22.0219C110.907 22.4921 112.212 22.9623 113.223 23.4325C114.234 23.9027 115.104 24.6081 115.833 25.5485C116.562 26.4889 116.926 27.7233 116.926 29.2515C116.926 30.5681 116.585 31.7907 115.903 32.9192C115.222 34.0477 114.222 34.9529 112.906 35.6347C111.589 36.293 110.026 36.6222 108.215 36.6222Z" fill="white"/>
</g>
</svg>
