<svg width="120" height="48" viewBox="0 0 120 48" fill="none" xmlns="http://www.w3.org/2000/svg">
<mask id="mask0_254_37" style="mask-type:alpha" maskUnits="userSpaceOnUse" x="0" y="0" width="120" height="48">
<rect width="120" height="48" fill="#D9D9D9"/>
</mask>
<g mask="url(#mask0_254_37)">
<path fill-rule="evenodd" clip-rule="evenodd" d="M22.0425 5.1001C23.6918 5.1001 25.2915 5.31229 26.8159 5.71086C27.5366 5.89929 28.1317 6.39333 28.5064 7.03711C29.7568 9.18553 28.0442 11.8459 25.5709 11.597L16.5429 10.6888L16.1843 10.6532L12.8558 10.3184C12.8546 10.3183 12.8535 10.319 12.8532 10.3202C12.8529 10.3214 12.8518 10.3221 12.8506 10.322L11.9025 10.2278C10.9393 10.1321 10.5723 8.96773 11.369 8.41804C14.4019 6.32547 18.0791 5.1001 22.0425 5.1001ZM34.9741 15.9149L35.749 17.246C36.3904 18.3479 37.94 18.4578 38.7305 17.4575C39.1392 16.9404 39.2405 16.2386 38.9504 15.6467C37.8154 13.3308 36.2185 11.2823 34.2798 9.62136C32.953 8.48462 31.5145 9.96082 32.3933 11.4709L34.9759 15.9081C34.9766 15.9093 34.9762 15.9108 34.975 15.9115C34.9743 15.9119 34.9739 15.9126 34.9738 15.9133C34.9737 15.9138 34.9738 15.9144 34.9741 15.9149ZM8.1277 28.4522L8.24945 27.9852L8.33295 27.6611C8.33302 27.6609 8.33328 27.6607 8.33353 27.6608C8.33378 27.6608 8.33404 27.6607 8.3341 27.6604L11.8136 14.3121C12.2085 12.797 11.157 11.2873 9.59891 11.1325C8.81265 11.0544 8.02618 11.3385 7.52327 11.9479C4.83902 15.2005 3.22656 19.3705 3.22656 23.917C3.22656 26.0926 3.59579 28.182 4.27501 30.1259C4.92367 31.9824 7.3103 31.6299 7.801 29.7255L8.12842 28.4549C8.12854 28.4544 8.1284 28.4539 8.12806 28.4536C8.12771 28.4532 8.12758 28.4527 8.1277 28.4522ZM18.8993 39.1932L12.6592 32.9716C11.0649 31.3821 8.34686 32.1266 7.78509 34.3067C7.55136 35.2138 7.75904 36.1886 8.40955 36.8626C13.0997 41.7221 18.6926 42.6638 20.4103 42.6638C21.1723 42.6638 21.542 41.834 21.0029 41.2955L18.8993 39.1942C18.8992 39.1942 18.8991 39.1939 18.8992 39.1938C18.8992 39.1938 18.8991 39.1939 18.8992 39.1938C18.8992 39.1938 18.8994 39.1936 18.8994 39.1935C18.8994 39.1934 18.8993 39.1933 18.8993 39.1932ZM23.0633 39.0965L33.7736 25.5452C33.7737 25.5451 33.7738 25.5451 33.7739 25.545C33.774 25.545 33.7741 25.545 33.7742 25.545C33.7743 25.545 33.7741 25.545 33.7742 25.545C33.7743 25.545 33.7745 25.5451 33.7746 25.5451C33.7749 25.5454 33.7753 25.5453 33.7755 25.545L36.0276 22.6954C37.68 20.6045 40.8593 21.252 40.8593 23.917C40.8593 33.3221 33.9593 41.1155 24.9453 42.5114C24.3138 42.6092 23.6813 42.3772 23.2292 41.9256C22.464 41.1613 22.3927 39.945 23.0633 39.0965Z" fill="#8A5CFF"/>
<path d="M70.2819 11.7594V15.7445H60.0193V22.0572H67.8837V25.9718H60.0193V36.3754H55.082V11.7594H70.2819Z" fill="black"/>
<path d="M94.8369 36.3754H89.8996L78.7202 19.4827V36.3754H73.7829V11.7241H78.7202L89.8996 28.652V11.7241H94.8369V36.3754Z" fill="black"/>
<path d="M108.215 36.6222C106.499 36.6222 104.947 36.3283 103.56 35.7406C102.197 35.1528 101.115 34.3064 100.316 33.2014C99.5163 32.0964 99.1048 30.7915 99.0813 29.2868H104.371C104.442 30.2978 104.794 31.0972 105.429 31.6849C106.088 32.2727 106.981 32.5666 108.11 32.5666C109.262 32.5666 110.167 32.2962 110.825 31.7555C111.483 31.1912 111.812 30.4624 111.812 29.5689C111.812 28.8401 111.589 28.2406 111.142 27.7704C110.696 27.3001 110.131 26.9357 109.45 26.6771C108.791 26.395 107.874 26.0893 106.699 25.7602C105.1 25.29 103.795 24.8315 102.784 24.3848C101.797 23.9146 100.939 23.221 100.21 22.3041C99.5045 21.3636 99.1518 20.1175 99.1518 18.5658C99.1518 17.1081 99.5163 15.8386 100.245 14.757C100.974 13.6755 101.997 12.8527 103.313 12.2884C104.63 11.7006 106.135 11.4067 107.827 11.4067C110.367 11.4067 112.424 12.0298 113.999 13.2759C115.598 14.4984 116.479 16.2147 116.644 18.4248H111.213C111.166 17.5784 110.802 16.8848 110.12 16.344C109.461 15.7798 108.58 15.4976 107.475 15.4976C106.511 15.4976 105.735 15.7445 105.147 16.2382C104.583 16.732 104.301 17.4491 104.301 18.3895C104.301 19.0478 104.512 19.6003 104.936 20.047C105.382 20.4702 105.923 20.8229 106.558 21.105C107.216 21.3636 108.133 21.6693 109.309 22.0219C110.907 22.4922 112.212 22.9624 113.223 23.4326C114.234 23.9028 115.104 24.6081 115.833 25.5486C116.562 26.489 116.926 27.7233 116.926 29.2515C116.926 30.5682 116.585 31.7907 115.903 32.9193C115.222 34.0478 114.222 34.953 112.906 35.6348C111.589 36.2931 110.026 36.6222 108.215 36.6222Z" fill="black"/>
</g>
</svg>
